<?xml version="1.0" encoding="utf-8" standalone="no"?>
<!DOCTYPE svg PUBLIC "-//W3C//DTD SVG 1.1//EN"
  "http://www.w3.org/Graphics/SVG/1.1/DTD/svg11.dtd">
<!-- Created with matplotlib (https://matplotlib.org/) -->
<svg height="168.9334pt" version="1.1" viewBox="0 0 397.828272 168.9334" width="397.828272pt" xmlns="http://www.w3.org/2000/svg" xmlns:xlink="http://www.w3.org/1999/xlink">
 <metadata>
  <rdf:RDF xmlns:cc="http://creativecommons.org/ns#" xmlns:dc="http://purl.org/dc/elements/1.1/" xmlns:rdf="http://www.w3.org/1999/02/22-rdf-syntax-ns#">
   <cc:Work>
    <dc:type rdf:resource="http://purl.org/dc/dcmitype/StillImage"/>
    <dc:date>2021-03-07T10:07:44.964563</dc:date>
    <dc:format>image/svg+xml</dc:format>
    <dc:creator>
     <cc:Agent>
      <dc:title>Matplotlib v3.3.4, https://matplotlib.org/</dc:title>
     </cc:Agent>
    </dc:creator>
   </cc:Work>
  </rdf:RDF>
 </metadata>
 <defs>
  <style type="text/css">*{stroke-linecap:butt;stroke-linejoin:round;}</style>
 </defs>
 <g id="figure_1">
  <g id="patch_1">
   <path d="M 0 168.9334 
L 397.828272 168.9334 
L 397.828272 0 
L 0 0 
z
" style="fill:#ffffff;"/>
  </g>
  <g id="axes_1">
   <g id="patch_2">
    <path clip-path="url(#pc8de829037)" d="M 309.270982 124.122697 
L 321.088242 124.122697 
L 315.179612 132.64476 
z
" style="fill:#778899;"/>
   </g>
   <g id="patch_3">
    <path clip-path="url(#pc8de829037)" d="M 354.721982 124.122697 
L 366.539242 124.122697 
L 360.630612 132.64476 
z
" style="fill:#778899;"/>
   </g>
   <g id="line2d_1">
    <path clip-path="url(#pc8de829037)" d="M 63.381072 43.5608 
L 386.083172 43.5608 
" style="fill:none;stroke:#000000;stroke-linecap:square;stroke-width:2;"/>
   </g>
   <g id="line2d_2">
    <path clip-path="url(#pc8de829037)" d="M 63.381072 89.0118 
L 386.083172 89.0118 
" style="fill:none;stroke:#000000;stroke-linecap:square;stroke-width:2;"/>
   </g>
   <g id="line2d_3">
    <path clip-path="url(#pc8de829037)" d="M 63.381072 132.985642 
L 386.083172 132.985642 
" style="fill:none;stroke:#778899;stroke-linecap:square;stroke-width:2;"/>
   </g>
   <g id="line2d_4">
    <path clip-path="url(#pc8de829037)" d="M 63.381072 135.939957 
L 386.083172 135.939957 
" style="fill:none;stroke:#778899;stroke-linecap:square;stroke-width:2;"/>
   </g>
   <g id="patch_4">
    <path clip-path="url(#pc8de829037)" d="M 260.865667 66.2863 
L 278.591557 66.2863 
L 278.591557 20.8353 
L 260.865667 20.8353 
z
" style="fill:#bdbdbd;opacity:0.6;"/>
   </g>
   <g id="patch_5">
    <path clip-path="url(#pc8de829037)" d="M 260.865667 111.7373 
L 278.591557 111.7373 
L 278.591557 66.2863 
L 260.865667 66.2863 
z
" style="fill:#bdbdbd;opacity:0.6;"/>
   </g>
   <g id="line2d_5">
    <path clip-path="url(#pc8de829037)" d="M 178.826612 89.0118 
L 178.826612 43.5608 
" style="fill:none;stroke:#6fa4ff;stroke-linecap:square;stroke-width:2;"/>
   </g>
   <g id="line2d_6">
    <path clip-path="url(#pc8de829037)" d="M 316.65677 43.5608 
L 316.65677 124.122697 
" style="fill:none;stroke:#778899;stroke-linecap:square;stroke-width:2;"/>
   </g>
   <g id="line2d_7">
    <path clip-path="url(#pc8de829037)" d="M 313.702455 43.5608 
L 313.702455 124.122697 
" style="fill:none;stroke:#778899;stroke-linecap:square;stroke-width:2;"/>
   </g>
   <g id="line2d_8">
    <path clip-path="url(#pc8de829037)" d="M 362.10777 89.0118 
L 362.10777 124.122697 
" style="fill:none;stroke:#778899;stroke-linecap:square;stroke-width:2;"/>
   </g>
   <g id="line2d_9">
    <path clip-path="url(#pc8de829037)" d="M 359.153455 89.0118 
L 359.153455 124.122697 
" style="fill:none;stroke:#778899;stroke-linecap:square;stroke-width:2;"/>
   </g>
   <g id="line2d_10">
    <path clip-path="url(#pc8de829037)" d="M 72.471272 139.0079 
L 77.016372 129.9177 
" style="fill:none;stroke:#778899;stroke-linecap:square;stroke-width:1.5;"/>
   </g>
   <g id="patch_6">
    <path clip-path="url(#pc8de829037)" d="M 73.153037 58.332375 
L 102.696187 58.332375 
L 102.696187 28.789225 
L 73.153037 28.789225 
z
" style="fill:#6fa4ff;stroke:#6fa4ff;stroke-linejoin:miter;stroke-width:1.5;"/>
   </g>
   <g id="patch_7">
    <path clip-path="url(#pc8de829037)" d="M 73.153037 103.783375 
L 102.696187 103.783375 
L 102.696187 74.240225 
L 73.153037 74.240225 
z
" style="fill:#6fa4ff;stroke:#6fa4ff;stroke-linejoin:miter;stroke-width:1.5;"/>
   </g>
   <g id="patch_8">
    <path clip-path="url(#pc8de829037)" d="M 118.604037 58.332375 
L 148.147187 58.332375 
L 148.147187 28.789225 
L 118.604037 28.789225 
z
" style="fill:#05bab6;stroke:#05bab6;stroke-linejoin:miter;stroke-width:1.5;"/>
   </g>
   <g id="patch_9">
    <path clip-path="url(#pc8de829037)" d="M 178.826612 47.992272 
C 180.001852 47.992272 181.129116 47.525345 181.960136 46.694324 
C 182.791157 45.863304 183.258085 44.73604 183.258085 43.5608 
C 183.258085 42.38556 182.791157 41.258296 181.960136 40.427276 
C 181.129116 39.596255 180.001852 39.129327 178.826612 39.129327 
C 177.651372 39.129327 176.524108 39.596255 175.693088 40.427276 
C 174.862067 41.258296 174.39514 42.38556 174.39514 43.5608 
C 174.39514 44.73604 174.862067 45.863304 175.693088 46.694324 
C 176.524108 47.525345 177.651372 47.992272 178.826612 47.992272 
z
" style="fill:#6fa4ff;stroke:#6fa4ff;stroke-linejoin:miter;stroke-width:1.5;"/>
   </g>
   <g id="patch_10">
    <path clip-path="url(#pc8de829037)" d="M 178.826612 99.351902 
C 181.568839 99.351902 184.199121 98.262404 186.138169 96.323357 
C 188.077216 94.384309 189.166715 91.754027 189.166715 89.0118 
C 189.166715 86.269573 188.077216 83.639291 186.138169 81.700243 
C 184.199121 79.761196 181.568839 78.671697 178.826612 78.671697 
C 176.084385 78.671697 173.454103 79.761196 171.515055 81.700243 
C 169.576008 83.639291 168.48651 86.269573 168.48651 89.0118 
C 168.48651 91.754027 169.576008 94.384309 171.515055 96.323357 
C 173.454103 98.262404 176.084385 99.351902 178.826612 99.351902 
z
" style="fill:#6fa4ff;stroke:#6fa4ff;stroke-linejoin:miter;stroke-width:2;"/>
   </g>
   <g id="patch_11">
    <path clip-path="url(#pc8de829037)" d="M 209.506037 58.332375 
L 239.049187 58.332375 
L 239.049187 28.789225 
L 209.506037 28.789225 
z
" style="fill:#6fa4ff;stroke:#6fa4ff;stroke-linejoin:miter;stroke-width:1.5;"/>
   </g>
   <g id="patch_12">
    <path clip-path="url(#pc8de829037)" d="M 209.506037 103.783375 
L 239.049187 103.783375 
L 239.049187 74.240225 
L 209.506037 74.240225 
z
" style="fill:#6fa4ff;stroke:#6fa4ff;stroke-linejoin:miter;stroke-width:1.5;"/>
   </g>
   <g id="patch_13">
    <path clip-path="url(#pc8de829037)" d="M 300.408037 58.332375 
L 329.951187 58.332375 
L 329.951187 28.789225 
L 300.408037 28.789225 
z
" style="stroke:#000000;stroke-linejoin:miter;stroke-width:1.5;"/>
   </g>
   <g id="patch_14">
    <path clip-path="url(#pc8de829037)" d="M 325.519715 47.992272 
C 325.519715 45.250959 324.42957 42.619118 322.491169 40.680716 
C 320.552767 38.742314 317.920926 37.65217 315.179612 37.65217 
C 312.438298 37.65217 309.806457 38.742314 307.868055 40.680716 
C 305.929654 42.619118 304.83951 45.250959 304.83951 47.992272 
" style="fill:none;stroke:#ffffff;stroke-linejoin:miter;stroke-width:2;"/>
   </g>
   <g id="patch_15">
    <path clip-path="url(#pc8de829037)" d="M 345.859037 103.783375 
L 375.402187 103.783375 
L 375.402187 74.240225 
L 345.859037 74.240225 
z
" style="stroke:#000000;stroke-linejoin:miter;stroke-width:1.5;"/>
   </g>
   <g id="patch_16">
    <path clip-path="url(#pc8de829037)" d="M 370.970715 93.443272 
C 370.970715 90.701959 369.88057 88.070118 367.942169 86.131716 
C 366.003767 84.193314 363.371926 83.10317 360.630612 83.10317 
C 357.889298 83.10317 355.257457 84.193314 353.319055 86.131716 
C 351.380654 88.070118 350.29051 90.701959 350.29051 93.443272 
" style="fill:none;stroke:#ffffff;stroke-linejoin:miter;stroke-width:2;"/>
   </g>
   <g id="line2d_11">
    <path clip-path="url(#pc8de829037)" d="M 315.179612 47.992272 
L 325.519715 37.65217 
" style="fill:none;stroke:#ffffff;stroke-linecap:square;stroke-width:2;"/>
   </g>
   <g id="line2d_12">
    <path clip-path="url(#pc8de829037)" d="M 360.630612 93.443272 
L 370.970715 83.10317 
" style="fill:none;stroke:#ffffff;stroke-linecap:square;stroke-width:2;"/>
   </g>
   <g id="line2d_13">
    <path clip-path="url(#pc8de829037)" d="M 178.826612 94.92043 
L 178.826612 83.10317 
" style="fill:none;stroke:#ffffff;stroke-linecap:square;stroke-width:2;"/>
   </g>
   <g id="line2d_14">
    <path clip-path="url(#pc8de829037)" d="M 172.917982 89.0118 
L 184.735242 89.0118 
" style="fill:none;stroke:#ffffff;stroke-linecap:square;stroke-width:2;"/>
   </g>
   <g id="line2d_15">
    <path clip-path="url(#pc8de829037)" d="M 269.728612 20.8353 
L 269.728612 66.2863 
" style="fill:none;stroke:#000000;stroke-dasharray:3.7,1.6;stroke-dashoffset:0;"/>
   </g>
   <g id="line2d_16">
    <path clip-path="url(#pc8de829037)" d="M 269.728612 66.2863 
L 269.728612 111.7373 
" style="fill:none;stroke:#000000;stroke-dasharray:3.7,1.6;stroke-dashoffset:0;"/>
   </g>
   <g id="text_1">
    <g clip-path="url(#pc8de829037)">
     <!-- H -->
     <g transform="translate(83.036409 47.147987)scale(0.13 -0.13)">
      <defs>
       <path d="M 9.8125 72.90625 
L 19.671875 72.90625 
L 19.671875 43.015625 
L 55.515625 43.015625 
L 55.515625 72.90625 
L 65.375 72.90625 
L 65.375 0 
L 55.515625 0 
L 55.515625 34.71875 
L 19.671875 34.71875 
L 19.671875 0 
L 9.8125 0 
z
" id="DejaVuSans-72"/>
      </defs>
      <use xlink:href="#DejaVuSans-72"/>
     </g>
    </g>
   </g>
   <g id="text_2">
    <g clip-path="url(#pc8de829037)">
     <!-- H -->
     <g transform="translate(83.036409 92.598987)scale(0.13 -0.13)">
      <use xlink:href="#DejaVuSans-72"/>
     </g>
    </g>
   </g>
   <g id="text_3">
    <g clip-path="url(#pc8de829037)">
     <!-- X -->
     <g transform="translate(128.923112 47.147987)scale(0.13 -0.13)">
      <defs>
       <path d="M 6.296875 72.90625 
L 16.890625 72.90625 
L 35.015625 45.796875 
L 53.21875 72.90625 
L 63.8125 72.90625 
L 40.375 37.890625 
L 65.375 0 
L 54.78125 0 
L 34.28125 31 
L 13.625 0 
L 2.984375 0 
L 29 38.921875 
z
" id="DejaVuSans-88"/>
      </defs>
      <use xlink:href="#DejaVuSans-88"/>
     </g>
    </g>
   </g>
   <g id="text_4">
    <g clip-path="url(#pc8de829037)">
     <!-- H -->
     <g transform="translate(219.389409 47.147987)scale(0.13 -0.13)">
      <use xlink:href="#DejaVuSans-72"/>
     </g>
    </g>
   </g>
   <g id="text_5">
    <g clip-path="url(#pc8de829037)">
     <!-- H -->
     <g transform="translate(219.389409 92.598987)scale(0.13 -0.13)">
      <use xlink:href="#DejaVuSans-72"/>
     </g>
    </g>
   </g>
   <g id="text_6">
    <g clip-path="url(#pc8de829037)">
     <!-- 0 -->
     <g transform="translate(326.542362 127.754825)scale(0.104 -0.104)">
      <defs>
       <path d="M 31.78125 66.40625 
Q 24.171875 66.40625 20.328125 58.90625 
Q 16.5 51.421875 16.5 36.375 
Q 16.5 21.390625 20.328125 13.890625 
Q 24.171875 6.390625 31.78125 6.390625 
Q 39.453125 6.390625 43.28125 13.890625 
Q 47.125 21.390625 47.125 36.375 
Q 47.125 51.421875 43.28125 58.90625 
Q 39.453125 66.40625 31.78125 66.40625 
z
M 31.78125 74.21875 
Q 44.046875 74.21875 50.515625 64.515625 
Q 56.984375 54.828125 56.984375 36.375 
Q 56.984375 17.96875 50.515625 8.265625 
Q 44.046875 -1.421875 31.78125 -1.421875 
Q 19.53125 -1.421875 13.0625 8.265625 
Q 6.59375 17.96875 6.59375 36.375 
Q 6.59375 54.828125 13.0625 64.515625 
Q 19.53125 74.21875 31.78125 74.21875 
z
" id="DejaVuSans-48"/>
      </defs>
      <use xlink:href="#DejaVuSans-48"/>
     </g>
    </g>
   </g>
   <g id="text_7">
    <g clip-path="url(#pc8de829037)">
     <!-- 1 -->
     <g transform="translate(371.993362 127.754825)scale(0.104 -0.104)">
      <defs>
       <path d="M 12.40625 8.296875 
L 28.515625 8.296875 
L 28.515625 63.921875 
L 10.984375 60.40625 
L 10.984375 69.390625 
L 28.421875 72.90625 
L 38.28125 72.90625 
L 38.28125 8.296875 
L 54.390625 8.296875 
L 54.390625 0 
L 12.40625 0 
z
" id="DejaVuSans-49"/>
      </defs>
      <use xlink:href="#DejaVuSans-49"/>
     </g>
    </g>
   </g>
   <g id="text_8">
    <g clip-path="url(#pc8de829037)">
     <!-- ${q}_{0}$ -->
     <g transform="translate(36.253372 48.011777)scale(0.1625 -0.1625)">
      <defs>
       <path d="M 41.703125 8.203125 
Q 38.09375 3.46875 33.171875 1.015625 
Q 28.265625 -1.421875 22.3125 -1.421875 
Q 14.015625 -1.421875 9.296875 4.171875 
Q 4.59375 9.765625 4.59375 19.578125 
Q 4.59375 27.484375 7.5 34.859375 
Q 10.40625 42.234375 15.828125 48.09375 
Q 19.34375 51.90625 23.90625 53.953125 
Q 28.46875 56 33.5 56 
Q 39.546875 56 43.453125 53.609375 
Q 47.359375 51.21875 49.125 46.390625 
L 50.6875 54.59375 
L 59.71875 54.59375 
L 45.125 -20.609375 
L 36.078125 -20.609375 
z
M 13.921875 20.90625 
Q 13.921875 13.671875 16.9375 9.890625 
Q 19.96875 6.109375 25.6875 6.109375 
Q 34.1875 6.109375 40.1875 14.234375 
Q 46.1875 22.359375 46.1875 33.984375 
Q 46.1875 41.015625 43.078125 44.75 
Q 39.984375 48.484375 34.1875 48.484375 
Q 29.9375 48.484375 26.3125 46.5 
Q 22.703125 44.53125 20.015625 40.71875 
Q 17.1875 36.71875 15.546875 31.34375 
Q 13.921875 25.984375 13.921875 20.90625 
z
" id="DejaVuSans-Oblique-113"/>
      </defs>
      <use xlink:href="#DejaVuSans-Oblique-113"/>
      <use transform="translate(63.476562 -16.40625)scale(0.7)" xlink:href="#DejaVuSans-48"/>
     </g>
    </g>
   </g>
   <g id="text_9">
    <g clip-path="url(#pc8de829037)">
     <!-- ${q}_{1}$ -->
     <g transform="translate(36.253372 93.462777)scale(0.1625 -0.1625)">
      <use xlink:href="#DejaVuSans-Oblique-113"/>
      <use transform="translate(63.476562 -16.40625)scale(0.7)" xlink:href="#DejaVuSans-49"/>
     </g>
    </g>
   </g>
   <g id="text_10">
    <g clip-path="url(#pc8de829037)">
     <!-- 2 -->
     <g transform="translate(67.926172 127.754825)scale(0.104 -0.104)">
      <defs>
       <path d="M 19.1875 8.296875 
L 53.609375 8.296875 
L 53.609375 0 
L 7.328125 0 
L 7.328125 8.296875 
Q 12.9375 14.109375 22.625 23.890625 
Q 32.328125 33.6875 34.8125 36.53125 
Q 39.546875 41.84375 41.421875 45.53125 
Q 43.3125 49.21875 43.3125 52.78125 
Q 43.3125 58.59375 39.234375 62.25 
Q 35.15625 65.921875 28.609375 65.921875 
Q 23.96875 65.921875 18.8125 64.3125 
Q 13.671875 62.703125 7.8125 59.421875 
L 7.8125 69.390625 
Q 13.765625 71.78125 18.9375 73 
Q 24.125 74.21875 28.421875 74.21875 
Q 39.75 74.21875 46.484375 68.546875 
Q 53.21875 62.890625 53.21875 53.421875 
Q 53.21875 48.921875 51.53125 44.890625 
Q 49.859375 40.875 45.40625 35.40625 
Q 44.1875 33.984375 37.640625 27.21875 
Q 31.109375 20.453125 19.1875 8.296875 
z
" id="DejaVuSans-50"/>
      </defs>
      <use xlink:href="#DejaVuSans-50"/>
     </g>
    </g>
   </g>
   <g id="text_11">
    <g clip-path="url(#pc8de829037)">
     <!-- c -->
     <g transform="translate(45.355911 138.946784)scale(0.1625 -0.1625)">
      <defs>
       <path d="M 48.78125 52.59375 
L 48.78125 44.1875 
Q 44.96875 46.296875 41.140625 47.34375 
Q 37.3125 48.390625 33.40625 48.390625 
Q 24.65625 48.390625 19.8125 42.84375 
Q 14.984375 37.3125 14.984375 27.296875 
Q 14.984375 17.28125 19.8125 11.734375 
Q 24.65625 6.203125 33.40625 6.203125 
Q 37.3125 6.203125 41.140625 7.25 
Q 44.96875 8.296875 48.78125 10.40625 
L 48.78125 2.09375 
Q 45.015625 0.34375 40.984375 -0.53125 
Q 36.96875 -1.421875 32.421875 -1.421875 
Q 20.0625 -1.421875 12.78125 6.34375 
Q 5.515625 14.109375 5.515625 27.296875 
Q 5.515625 40.671875 12.859375 48.328125 
Q 20.21875 56 33.015625 56 
Q 37.15625 56 41.109375 55.140625 
Q 45.0625 54.296875 48.78125 52.59375 
z
" id="DejaVuSans-99"/>
      </defs>
      <use xlink:href="#DejaVuSans-99"/>
     </g>
    </g>
   </g>
  </g>
 </g>
 <defs>
  <clipPath id="pc8de829037">
   <rect height="154.5334" width="383.428272" x="7.2" y="7.2"/>
  </clipPath>
 </defs>
</svg>
