<svg xmlns="http://www.w3.org/2000/svg" xml:space="preserve" height="64" viewBox="0 0 129 64"
  fill="none">
  <title>Reply Logo</title>
  <g clip-path="url(#clip0_10408_551)">
    <path fill-rule="evenodd" clip-rule="evenodd"
      d="M27.3656 18.3166C27.3656 16.4202 28.9009 14.8837 30.8013 14.8837C32.6929 14.8837 34.2326 16.4202 34.2326 18.3166C34.2326 20.2087 32.6929 21.7408 30.8013 21.7408C28.9009 21.7408 27.3656 20.2087 27.3656 18.3166ZM27.5612 23.6679L23.2677 29.309L22.1812 30.7708L27.3764 37.7596C27.6624 38.1415 27.8164 38.6068 27.812 39.0853L27.7768 48.3261C27.7768 48.7651 27.4204 49.1163 26.9849 49.1163H26.3779C25.982 49.1163 25.6432 48.8221 25.5904 48.4314L24.4599 40.1038C24.4203 39.8053 24.2663 39.5375 24.0288 39.3531L18.0769 34.6339L15.2571 36.3504C14.8831 36.5743 14.4564 36.6972 14.0209 36.706L2.24466 36.8991C1.90154 36.9035 1.56721 36.7631 1.33406 36.5128L0.141917 35.2354C-0.14842 34.9281 0.0319411 34.4145 0.45425 34.3574L12.6484 32.6278L21.9172 22.689L14.4256 21.2798C14.2101 21.2403 14.0077 21.1481 13.8406 21.012L12.6308 20.0375C12.3669 19.8268 12.5165 19.4053 12.8552 19.4053H17.1706L25.0362 19.3527C25.3397 19.3483 25.6212 19.5063 25.784 19.7609L27.6052 22.6802C27.7988 22.9875 27.7812 23.3826 27.5612 23.6679Z"
      fill="#02D34A"></path>
    <path fill-rule="evenodd" clip-rule="evenodd"
      d="M52.4587 27.2963C52.4587 25.5638 51.109 24.4966 49.3494 24.4966H44.6452V30.1584H49.3494C51.109 30.1584 52.4587 29.0868 52.4587 27.2963ZM52.0177 41.5444L47.906 34.0877H44.6452V41.5444H40.186V20.5629H49.9775C54.3386 20.5629 57.0382 23.425 57.0382 27.3275C57.0382 31.0068 54.6861 33.0205 52.4276 33.5519L57.1629 41.5444H52.0177Z"
      fill="#151F27"></path>
    <path fill-rule="evenodd" clip-rule="evenodd"
      d="M60.363 41.5444V20.5629H75.1705V24.4966H64.8177V28.8992H74.9522V32.8285H64.8177V37.6107H75.1705V41.5444H60.363Z"
      fill="#151F27"></path>
    <path fill-rule="evenodd" clip-rule="evenodd"
      d="M90.927 27.3275C90.927 25.5638 89.5817 24.4966 87.8221 24.4966H83.1135V30.1271H87.8221C89.5817 30.1271 90.927 29.0555 90.927 27.3275ZM78.6588 41.5444V20.5629H88.4502C92.9985 20.5629 95.4797 23.6438 95.4797 27.3275C95.4797 30.9755 92.9673 34.0564 88.4502 34.0564H83.1135V41.5444H78.6588Z"
      fill="#151F27"></path>
    <path fill-rule="evenodd" clip-rule="evenodd"
      d="M98.0818 41.5444V20.5629H102.572V37.6107H111.419V41.5444H98.0818Z" fill="#151F27"></path>
    <path fill-rule="evenodd" clip-rule="evenodd"
      d="M116.284 41.5444V32.958L108.253 20.5629H113.335L118.512 28.9618L123.688 20.5629H128.744L120.739 32.958V41.5444H116.284Z"
      fill="#151F27"></path>
  </g>
  <defs>
    <clipPath id="clip0_10408_551">
      <rect width="128.744" height="64" fill="white"></rect>
    </clipPath>
  </defs>
</svg>