<?xml version="1.0" standalone="no"?>
<!DOCTYPE svg PUBLIC "-//W3C//DTD SVG 20010904//EN"
 "http://www.w3.org/TR/2001/REC-SVG-20010904/DTD/svg10.dtd">
<svg version="1.0" xmlns="http://www.w3.org/2000/svg"
 width="512.000000pt" height="512.000000pt" viewBox="0 0 512.000000 512.000000"
 preserveAspectRatio="xMidYMid meet">
<metadata>
Created by potrace 1.11, written by Peter Selinger 2001-2013
</metadata>
<g transform="translate(0.000000,512.000000) scale(0.100000,-0.100000)"
fill="#000000" stroke="none">
<path d="M0 2560 l0 -2560 2560 0 2560 0 0 2560 0 2560 -2560 0 -2560 0 0
-2560z m1170 1432 c503 -360 922 -660 930 -668 12 -12 5 -14 -50 -15 -36 0
-76 -2 -90 -4 -14 -1 -113 -5 -220 -9 -184 -6 -322 -15 -328 -20 -5 -5 428
-1852 440 -1877 31 -65 694 -1057 701 -1050 5 5 107 665 228 1467 120 803 222
1469 226 1481 5 15 351 268 979 717 l972 694 -33 -102 c-89 -280 -288 -892
-294 -903 -4 -8 -47 2 -145 33 -77 24 -146 45 -153 46 -8 2 -150 -109 -317
-247 l-303 -250 -217 -929 c-119 -511 -215 -931 -212 -933 2 -2 121 127 265
288 l261 292 267 413 c148 226 269 411 270 410 1 -1 -48 -154 -108 -340 l-111
-338 -785 -918 -786 -919 -28 37 c-15 20 -367 433 -782 917 -414 484 -753 881
-752 883 1 1 73 -32 160 -73 118 -56 156 -71 152 -58 -293 1029 -490 1716
-500 1743 -10 27 -572 851 -641 939 -16 22 8 5 1004 -707z"/>
<path d="M3979 3944 c-508 -371 -926 -682 -928 -692 -7 -34 -449 -2847 -447
-2849 1 -1 344 395 761 881 l759 884 88 273 c48 150 86 275 84 276 -2 2 -113
-166 -247 -373 l-244 -377 -287 -324 c-159 -178 -288 -321 -288 -316 0 4 103
456 228 1003 l228 995 328 267 c181 148 332 268 337 268 5 0 70 -22 146 -50
75 -27 138 -49 139 -47 6 6 275 850 272 853 -2 2 -420 -300 -929 -672z"/>
<path d="M840 3744 c0 -7 499 -1770 508 -1792 3 -9 -10 -6 -39 9 -24 12 -86
41 -137 65 l-92 43 118 -137 c65 -75 340 -396 611 -712 272 -316 505 -586 519
-600 l25 -25 -15 25 c-8 14 -129 198 -269 410 l-253 385 -226 951 -225 951
-215 178 c-118 98 -236 196 -262 218 -27 21 -48 36 -48 31z"/>
</g>
</svg>
