<svg xmlns="http://www.w3.org/2000/svg" fill="none" viewBox="0 0 793 180" height="180" width="793">
<g clip-path="url(#clip0_770_1905)">
<path fill="white" d="M18.05 1.14001H-0.459961V106.45H73.41V89.6H18.05V1.14001Z"></path>
<path fill="white" d="M329.87 73.95L273.46 1.14001H256.31V106.45H274.51V31.53L332.58 106.45H348.08V1.14001H329.87V73.95Z"></path>
<path fill="white" d="M431.14 1.14001H412.64V106.45H431.14V1.14001Z"></path>
<path fill="white" d="M511.99 61.62H564.79V45.07H511.99V17.69H571.56V1.14001H493.48V106.45H572.31V89.9H511.99V61.62Z"></path>
<path fill="white" d="M716.77 34.69V34.39C716.77 25.21 713.61 17.39 708.04 11.67C701.27 5.05001 690.89 1.14001 677.65 1.14001H630.71V106.45H649.21V69.74H672.38L698.26 106.45H720.22L691.79 66.58C706.39 62.37 716.77 51.99 716.77 34.69ZM649.22 53.34V17.99H676.15C689.84 17.99 697.97 24.16 697.97 35.44V35.74C697.97 46.42 689.54 53.34 676.3 53.34H649.22Z"></path>
<path fill="white" d="M793.24 1.14001H774.74V106.45H793.24V1.14001Z"></path>
<path fill="white" d="M150.14 0.390015L103.81 106.45H122.76L158.42 22.5L194.07 106.45H213.63L167.3 0.390015H150.14Z"></path>
<path fill="white" d="M244.45 152.41H249.37V180.41H244.45V152.41Z"></path>
<path fill="white" d="M298.93 156.97H290.05V152.41H312.77V156.97H303.89V180.41H298.93V156.97Z"></path>
<path fill="white" d="M359.49 152.21H364.05L376.37 180.41H371.17L368.33 173.65H355.09L352.21 180.41H347.17L359.49 152.21ZM366.53 169.28L361.69 158.08L356.89 169.28H366.53Z"></path>
<path fill="white" d="M416.37 152.41H421.29V175.93H436.01V180.41H416.37V152.41Z"></path>
<path fill="white" d="M476.61 152.41H481.53V180.41H476.61V152.41Z"></path>
<path fill="white" d="M534.13 152.21H538.69L551.01 180.41H545.81L542.97 173.65H529.73L526.85 180.41H521.81L534.13 152.21ZM541.17 169.28L536.33 158.08L531.53 169.28H541.17Z"></path>
</g>
<defs>
<clipPath id="clip0_770_1905">
<rect fill="white" height="180" width="793"></rect>
</clipPath>
</defs>
</svg>
