<svg xmlns="http://www.w3.org/2000/svg" xmlns:xlink="http://www.w3.org/1999/xlink" version="1.1"
  id="Layer_1" x="0px" y="0px" viewBox="0 0 604.7 120" style="enable-background:new 0 0 604.7 120;"
  xml:space="preserve">
<style type="text/css">
	.st0{fill:currentColor}
	.st1{fill:#33B6A7;}
</style>
<g>
	<g>
		<polygon class="st0" points="47.5,110 0,0 19.9,0 48.2,68.2 76.1,0 95.1,0   "></polygon>
		<polygon class="st0" points="470.5,74 502.5,0 550.1,110 530.2,110 501.9,41.8 488.7,74   "></polygon>
		<polygon class="st0" points="141.8,44.6 185.8,44.6 185.8,62.5 141.8,62.5 141.8,92.1 190.5,92.1 190.5,110 122.9,110 122.9,0     189.5,0 189.5,17.9 141.8,17.9   "></polygon>
		<path class="st0" d="M318.1,55c0,31.7-22.3,55-54.4,55h-35.5V0h35.5C295.8,0,318.1,23.2,318.1,55 M299,55    c0-20.1-13.5-37.1-34.9-37.1h-17v74.2h17C285.5,92.1,299,74.9,299,55"></path>
		<path class="st0" d="M349.2,0h36.1c21.8,0,36.5,14.1,36.5,34.3c0,16.5-8.8,29.1-24.5,33l27.5,42.7h-22l-26.1-41.5H368V110h-18.9V0    H349.2z M402.6,34.2c0-10.8-7.5-16.3-19.6-16.3h-15v32.7h15C395.1,50.6,402.6,45.1,402.6,34.2"></path>
		<rect x="580.9" class="st0" width="18.2" height="110"></rect>
		<polygon class="st1" points="481.3,92.1 474,110 455,110 462.7,92.1   "></polygon>
	</g>
</g>
</svg>