<?xml version="1.0" encoding="UTF-8" standalone="no"?>
<svg height="32" width="32">
  <g id="background" style="fill:#000000;">
  	<rect width="32" height="32" />
  </g>
  <g transform="skewX(-12)">
  	<g style="fill:#00ffff;fill-opacity:0.5;fill-rule:evenodd;stroke:#00bfc0;stroke-opacity:0.5;">
      <polygon points="20.5,2.5 23,5 23,12.5 20.5,15 18,12.5 18,5" />
      <polygon points="20.5,16 23,18.5 23,26 20.5,28.5 18,26 18,18.5" />
	</g>
    <g style="fill:#8080ff;fill-opacity:0.5;fill-rule:evenodd;stroke:#8080c0;stroke-opacity:0.5;">
      <polygon points="10,0 20,0 20,2 18,4 12,4 9,1"/>
      <polygon points="21,0 31,0 32,1 29,4 23,4 21,2" />
      <polygon points="8,2 11,5 11,13 9,15 7,15 7,3" />
      <polygon points="7,16 9,16 11,18 11,26 8,29 7,28" />
      <polygon points="12,27 18,27 20,29 20,31 10,31 9,30" />
      <polygon points="23,27 29,27 32,30 31,31 21,31 21,29" />
    </g>
  </g>
</svg>
