<svg xmlns="http://www.w3.org/2000/svg" xml:space="preserve" width="113.232mm" height="14.4116mm" style="shape-rendering:geometricPrecision;text-rendering:geometricPrecision;image-rendering:optimizeQuality;fill-rule:evenodd;clip-rule:evenodd" viewBox="0 0 3956.4 503.55"><defs><style>.fil0,.fil1{fill:#2b2b2a;fill-rule:nonzero}.fil1{fill:#ff4801}</style></defs><g id="Livello_x0020_1"><g id="_105553754022624"><path d="M1016.02 3.94l0 496.41 -107.74 0 0 -129.53 -203.19 0 -4.34 0 -103.4 129.53 0 -172.22 258.87 -324.18 159.81 0zm-107.74 259.06l0 -21.71 0 -129.53 -120.76 151.24 120.76 0z" class="fil0"/><path id="1" d="M1411.84 392.53 1411.84 500.35 1079.22 500.35 1079.22 146.5 1186.96 11.9 1186.96 392.53z" class="fil0"/><path id="2" d="M1462.02 111.77 1458.41 111.77 1355 111.77 1441.05 3.94 1783.08 3.94 1697.03 111.77 1570.48 111.77 1570.48 500.35 1462.02 500.35z" class="fil0"/><path id="3" d="M2132.62 3.94 2046.57 111.77 1830.36 111.77 1830.36 198.6 2024.88 198.6 2024.88 306.42 1830.36 306.42 1830.36 500.35 1722.62 500.35 1722.62 146.5 1833.98 6.84 1836.87 3.94z" class="fil1"/><path id="4" d="M2391.05 3.94c20.97,0 41.94,4.34 62.91,13.75 20.97,9.41 39.77,21.71 56.4,37.63 16.63,15.92 29.64,34.01 40.49,55 10.85,20.98 15.91,43.42 15.91,67.3l0 149.79 0 21.71c0,20.99 -3.62,41.25 -11.57,59.34 -7.95,18.09 -18.8,34.01 -32.54,47.76 -13.74,13.75 -30.37,23.88 -48.45,31.84 -18.08,7.96 -37.6,12.3 -58.57,12.3l-189.45 0 -7.95 0c-20.97,0 -40.5,-4.34 -58.57,-12.3 -18.08,-7.96 -33.99,-18.09 -47.73,-31.84 -13.74,-13.75 -24.58,-29.67 -32.54,-47.76 -7.96,-18.09 -12.3,-38.35 -12.3,-59.34l0 -21.71 0 -139.66c0,-23.16 5.06,-45.59 15.91,-68.02 10.13,-21.71 23.14,-41.25 39.77,-58.61 16.63,-16.65 34.71,-30.4 55.67,-41.25 20.97,-10.13 41.22,-15.2 62.19,-15.2l150.4 -0.72zm67.97 179.46c0,-7.96 -1.45,-15.92 -3.62,-24.61 -2.89,-7.96 -7.23,-15.92 -12.29,-23.16 -5.78,-6.51 -13.02,-12.3 -21.69,-17.37 -8.68,-4.34 -18.8,-6.51 -30.37,-6.51l-148.96 0.72c-7.96,0 -15.19,2.17 -23.14,7.24 -7.95,5.07 -15.18,10.85 -21.69,18.09 -6.51,7.96 -12.29,15.92 -15.91,24.61 -4.34,8.68 -6.51,16.64 -6.51,24.6l0.72 162.09c0,15.2 3.62,26.78 10.12,33.29 6.51,6.51 17.36,10.13 32.54,10.13l197.41 0c15.19,0 26.75,-3.62 33.26,-10.13 6.51,-6.51 10.13,-18.09 10.13,-33.29l0 -165.71z" class="fil1"/><path id="5" d="M3084.06 154.46l0 43.42c0,18.09 -2.9,34.73 -8.68,50.65 -6.51,16.64 -14.46,31.11 -24.59,44.14 -10.85,13.03 -23.14,23.88 -37.6,33.29 -15.19,9.41 -31.09,15.92 -48.45,19.54l118.59 154.86 -135.94 0 -198.85 -259.06 184.39 0c15.19,0 26.75,-3.62 33.26,-10.13 6.51,-6.51 10.13,-18.09 10.13,-33.28l0 -43.42c0,-15.2 -3.62,-26.78 -10.13,-33.29 -6.51,-6.51 -18.07,-9.41 -33.26,-9.41l-206.08 0 0 388.59 -3.62 0 -104.12 0 0 -354.58 113.53 -142.56 200.3 0c20.97,0 40.49,3.62 58.57,11.58 18.07,7.96 34.71,18.82 48.45,32.56 13.74,13.75 24.58,30.39 32.54,48.48 7.95,18.09 11.57,37.63 11.57,58.61z" class="fil1"/><path id="6" d="M3547.85 315.83 3796.6 3.94 3956.4 3.94 3956.4 500.35 3848.66 500.35 3848.66 111.77 3547.85 500.35 3439.38 500.35 3439.38 111.77 3129.17 500.35 3129.17 327.41 3388.05 3.94 3547.85 3.94z" class="fil1"/><path d="M7.14 500.06 117.49 500.06 211.12 379.58 211.12 500.06 299.4 500.06 299.4 379.58 393.02 500.06 503.37 500.06 344.73 295.92 503.54 295.92 503.54 207.64 344.73 207.64 503.37 3.49 393.02 3.49 299.4 123.98 299.4 3.49 211.12 3.49 211.12 123.98 117.49 3.49 7.14 3.49 165.78 207.64 6.97 207.64 6.97 295.92 165.78 295.92z" style="stroke:#ff4801;stroke-width:6.99;stroke-miterlimit:22.9256;fill:#ff4801"/></g></g></svg>