<svg xmlns="http://www.w3.org/2000/svg" width="209" height="72" fill="none" viewBox="0 0 209 72"><path fill="#000" d="M184.461 30.4667C185.782 37.8026 180.94 45.5786 171.843 52.4743C171.77 52.5476 171.843 52.6944 171.917 52.621C179.179 47.9261 186.809 42.5709 192.017 35.5285C193.851 33.0343 195.465 29.9532 195.685 26.7988C196.199 20.8567 192.237 15.795 187.322 13.0074C184.021 11.1734 180.426 9.99967 176.758 9.19272C170.376 7.72555 163.774 7.2854 157.245 7.35876C153.944 7.43211 150.569 7.57883 147.268 7.87227C144.041 8.1657 140.886 8.60585 137.732 9.11936C134.577 9.63287 131.496 10.2931 128.342 11.0267C127.975 11.1 127.682 11.1734 127.315 11.2468C127.241 11.2468 127.241 11.3935 127.315 11.3935C157.392 8.67921 181.894 16.3819 184.461 30.4667Z"/><path fill="#000" d="M157.61 3.837C157.537 3.837 157.463 3.69 157.61 3.69 159.958 3.25 162.232 2.81 164.579 2.443 168.32 1.856 171.988 1.343 175.73.976 182.185.389 188.861-.051 195.316.902 196.784 1.122 198.177 1.416 199.645 1.783 203.166 2.81 206.76 4.644 207.714 8.458 208.374 10.953 207.934 13.52 207.201 15.941 205.733 20.563 202.799 24.744 199.718 28.485 199.498 28.705 199.351 28.925 199.131 29.145 199.058 29.219 198.984 29.145 198.984 29.072 200.231 25.698 200.818 21.883 200.158 18.362 199.204 13.08 195.023 9.265 190.328 7.211 184.606 4.717 178.297 4.057 172.135 3.837 167.22 3.47 162.452 3.617 157.61 3.837ZM48.601 58.781C48.601 65.677 43.025 71.252 36.13 71.252H.037V59.808H8.693V62.596H36.13C38.257 62.596 40.018 60.835 40.018 58.708 40.018 56.581 38.257 54.82 36.13 54.82H.037V46.237H29.014C31.141 46.237 32.902 44.477 32.902 42.349 32.902 40.222 31.141 38.461 29.014 38.461H8.693V41.249H.037V29.878H29.014C35.91 29.878 41.485 35.453 41.485 42.349 41.485 44.036 41.191 45.577 40.531 47.044 45.299 48.878 48.601 53.426 48.601 58.781ZM109.708 29.878H161.426V38.534H109.708V29.878ZM131.276 43.449H139.932V71.252H131.276V43.449ZM86.82 52.766 93.349 61.422H69.801L62.319 71.252H51.462L84.693 27.457 117.924 71.326H107.067L84.693 41.836 76.33 52.839H86.82V52.766Z"/></svg>