<svg xmlns="http://www.w3.org/2000/svg" width="100" height="100" viewBox="0 0 100 100"><g fill="none" fill-rule="evenodd"><path fill="#6ed12f" d="m.06186284 99.9819277h99.92933276v-99.9293327h-99.92933276z"/><g fill="#fffffe"><path d="m55.5220806 41.1196942c-.2988878.0166821-.5644115.1438832-.7284522.3482391-.4114922.5143651-.820899 1.0308155-1.2289157 1.547266l-1.2831325 1.6139944-.0959222-.1084337c-.0166821-.0187674-.0312789-.0354495-.0444856-.0521316l-.6582484-.8250695c-.5588508-.7013439-1.1177016-1.4026877-1.6702966-2.1088972-.2168674-.2780352-.4775255-.4135774-.8049119-.4135774-.1070436 0-.2217331.0145969-.3447637.0437906-.3572752.0841056-.5706673.3301668-.5706673.6575533v2.4300278c0 1.5576923 0 3.1146895-.0020852 4.6723818 0 .2272938.0903614.3941149.2787303.5094995.2634383.1626507.537303.1709917.8146432.0278036.229379-.118165.3308619-.3086191.3294717-.6165431-.0034755-1.255329-.0027804-2.510658-.0020853-3.765292v-1.7036608l.1939296.2022707c.023633.023633.0389249.03962.0528267.0576923l.5081093.6693698c.3760427.4983781.7527804.9960611 1.1322985 1.492354l.0674235.0896663c.1070436.1431882.2189527.2912419.3524096.394115.1633457.1272011.3524097.1814179.5456442.1556997.2106116-.0278035.4080166-.1487489.5546802-.3405932.2961075-.3864689.5908249-.7736329.8855422-1.160797l1.0801668-1.413114.1563948.0465709v1.2615848c0 1.3449954-.0006951 2.6906858.0041705 4.0356812 0 .1369323.0284987.268304.0792401.3600556.1438832.2648286.4955978.3913346.8375811.3023633.3197405-.0841056.5032437-.3037535.5032437-.6033364.0013902-2.3667748.0013902-4.7342447 0-7.1017146 0-.1779425-.055607-.3197405-.1696015-.43443-.1876737-.1883688-.4705746-.2863763-.7729379-.2703892" transform="translate(14.968 19.555)"/><path d="M49.008 41.27c-.096 0-.2.013-.31.04-.291.068-.457.255-.457.513v2.764c0 1.446 0 2.892-.001 4.339-.001.176.063.294.207.383.219.135.437.142.669.022.178-.092.251-.232.25-.484-.004-1.255-.003-2.511-.003-3.766v-2.073l.45.468c.028.028.047.049.063.07l.507.671c.377.498.753.995 1.133 1.491l.068.091c.102.136.207.275.325.366.132.102.283.146.434.126.172-.023.334-.124.457-.284.289-.377.577-.755.865-1.133l1.163-1.522.362.108-.001 1.372c0 1.345 0 2.69.003 4.036.001.111.024.219.062.289.111.205.393.301.669.229.252-.066.392-.229.393-.459.001-2.367.001-4.734 0-7.101 0-.138-.04-.243-.127-.329-.158-.158-.396-.243-.66-.227-.256.014-.484.12-.621.292-.402.503-.801 1.006-1.199 1.51l-1.423 1.791-.213-.243c-.019-.02-.035-.039-.051-.059l-.656-.824c-.56-.701-1.12-1.403-1.672-2.11-.19-.243-.408-.356-.687-.356m-.212 8.442c-.172 0-.342-.051-.505-.151-.232-.143-.35-.357-.35-.637.002-1.446.002-2.892.002-4.338v-2.764c0-.396.263-.703.685-.803.548-.129.975.006 1.301.423.553.706 1.111 1.406 1.67 2.108l.658.825c.006.008.012.015.018.022l1.202-1.512c.399-.505.799-1.009 1.2-1.511.19-.238.495-.385.836-.404.345-.019.669.096.887.314.142.141.213.323.213.539.001 2.367.001 4.734-.001 7.102 0 .367-.23.646-.614.747-.408.106-.831-.051-1.006-.375-.063-.114-.097-.267-.097-.43-.005-1.346-.004-2.691-.004-4.036v-1.074l-.99 1.296c-.288.378-.576.756-.865 1.134-.171.223-.403.365-.654.398-.232.031-.459-.033-.656-.186-.149-.115-.266-.271-.379-.422l-.067-.09c-.379-.495-.756-.993-1.133-1.491l-.488-.644v1.327c0 1.255-.001 2.51.003 3.765.001.366-.129.605-.41.75-.152.078-.305.117-.457.117M60.162 43.137c-.505-.619-.954-1.191-1.374-1.75-.133-.178-.313-.27-.509-.27-.105 0-.215.026-.325.079-.219.106-.392.316-.441.535-.04.185.008.368.14.531.324.398.644.809.955 1.207.145.186.29.373.436.557.133.169.289.251.454.244h.002c.266 0 .469-.098.646-.309.169-.202.263-.524.017-.826" transform="translate(14.968 19.555)"/><path d="M58.279 41.266c-.084 0-.172.022-.26.065-.178.085-.323.259-.361.433-.031.141.006.277.111.405.323.397.643.807.953 1.205.154.198.296.38.439.562.101.129.213.191.331.187.227 0 .392-.079.54-.255.063-.076.252-.345.015-.636-.509-.624-.959-1.198-1.377-1.754-.104-.138-.239-.211-.391-.211m1.198 3.154c-.147 0-.357-.056-.551-.302-.142-.181-.285-.364-.427-.546-.321-.411-.639-.82-.961-1.216-.163-.199-.221-.426-.17-.657.058-.262.263-.512.522-.637.375-.182.774-.089 1.018.235.416.553.864 1.124 1.371 1.745.304.372.18.779-.018 1.015-.209.25-.455.365-.783.362M64.453 42.233c.147-.188.177-.382.091-.593-.117-.29-.336-.464-.648-.519-.037-.006-.073-.01-.108-.01-.185 0-.345.09-.486.272-.747.963-1.497 1.923-2.247 2.883l-.587.753c-.096.122-.142.256-.141.41.003.416.003.832.002 1.248v.974 1.247c0 .303.133.496.416.609.243.096.535.063.742-.084.131-.093.284-.269.272-.586-.025-.671-.02-1.353-.015-2.012.001-.322.004-.644.003-.966 0-.113.03-.201.098-.288.566-.723 1.131-1.446 1.695-2.169z" transform="translate(14.968 19.555)"/><path d="M63.788 41.26c-.138 0-.255.068-.368.215-.747.962-1.497 1.922-2.247 2.883l-.587.753c-.075.096-.11.197-.109.317.003.416.003.833.002 1.249v.974 1.246c0 .241.097.382.323.471.197.078.433.051.601-.067.146-.104.217-.258.209-.459-.026-.678-.02-1.36-.015-2.019v-.038c.002-.309.005-.617.003-.926-.001-.146.04-.267.129-.38.484-.619.968-1.238 1.451-1.857l1.155-1.479c.115-.147.136-.284.071-.446-.099-.242-.274-.382-.536-.428-.028-.005-.056-.008-.083-.008m-2.752 8.449c-.117 0-.235-.022-.344-.065-.339-.134-.51-.386-.51-.748l-.001-1.246.001-.974c.001-.416.001-.831-.002-1.246-.001-.186.056-.355.172-.503l.587-.753c.749-.959 1.5-1.919 2.246-2.882.202-.26.446-.368.737-.318.361.064.623.275.76.61.106.261.069.51-.111.741l-1.155 1.479c-.484.619-.968 1.238-1.452 1.857-.047.06-.067.117-.067.195.001.31-.001.619-.003.929v.038c-.005.656-.01 1.335.015 2.006.011.299-.107.552-.334.713-.154.108-.346.165-.538.165M37.733 47.628c.405-.614.631-1.312.673-2.073.042-.788-.091-1.478-.407-2.109-.687-1.369-1.813-2.137-3.349-2.284-.669-.064-1.359-.052-2.027-.041-.211.004-.423.008-.633.009-.375.002-.659.269-.659.62-.001 2.367-.001 4.734.001 7.101 0 .057.002.13.024.186.096.251.282.386.587.428.229.03.437-.024.583-.152.144-.126.223-.318.223-.541v-6.27l.115-.008c.021-.001.038-.003.055-.003l.365-.001c.122-.001.243-.001.365-.001.184 0 .366.001.55.006.233.006.435.031.619.076 1.153.284 2.002 1.28 2.111 2.479.06.654-.092 1.257-.45 1.791-.528.788-1.259 1.216-2.173 1.271-.101.006-.191.01-.268.034-.327.097-.517.471-.424.833.08.309.316.504.595.496.696-.018 1.303-.153 1.854-.413.698-.329 1.259-.813 1.671-1.436" transform="translate(14.968 19.555)"/><path d="M33.649 42.342c.184 0 .368.001.553.006.243.006.456.033.651.081 1.215.3 2.109 1.348 2.224 2.61.063.689-.097 1.324-.474 1.887-.555.829-1.326 1.279-2.288 1.336-.094.006-.174.01-.236.028-.251.074-.396.368-.322.654.062.239.24.392.446.384.676-.017 1.263-.148 1.794-.398.674-.318 1.215-.783 1.611-1.384.39-.592.608-1.265.648-1.999.041-.761-.087-1.426-.391-2.034-.662-1.32-1.749-2.061-3.23-2.203-.658-.063-1.343-.051-2.005-.04-.217.004-.429.008-.64.009-.291.002-.512.204-.512.471-.001 2.367-.001 4.734.001 7.102 0 .024 0 .095.015.133.076.199.217.3.468.333.186.024.352-.017.466-.116.111-.097.172-.25.172-.429v-6.409l.254-.016c.024-.002.044-.003.065-.003zm.542 7.284c-.339 0-.628-.241-.722-.608-.113-.439.123-.894.525-1.013.095-.028.195-.033.302-.04.865-.051 1.557-.457 2.058-1.205.339-.505.482-1.075.425-1.695-.104-1.135-.906-2.078-1.998-2.347-.174-.043-.366-.067-.587-.072-.182-.005-.364-.006-.546-.006l-.73.003c-.007 0-.014 0-.022.001v6.13c0 .266-.097.498-.273.653-.179.157-.429.224-.701.187-.36-.048-.592-.218-.708-.522-.03-.079-.034-.169-.034-.239-.001-2.367-.001-4.734-.001-7.102 0-.435.348-.765.807-.768.211-.001.421-.005.632-.009.676-.011 1.369-.023 2.044.042 1.59.152 2.756.948 3.468 2.365.327.655.466 1.369.423 2.183-.042.788-.277 1.51-.697 2.147-.426.646-1.009 1.148-1.731 1.489-.57.268-1.196.408-1.914.427zM20.031 41.542c-.922-.555-1.946-.733-3.043-.528-.875.163-1.633.55-2.252 1.15-.875.847-1.294 1.88-1.319 3.249.007.048.014.107.022.174.021.186.05.44.107.683.222.951.734 1.745 1.519 2.36.591.462 1.275.758 2.036.881.672.108 1.288.079 1.884-.09.771-.218 1.445-.636 2.06-1.276.225-.234.262-.466.12-.753-.102-.209-.32-.366-.555-.402-.211-.031-.408.036-.557.193-.12.127-.256.239-.388.347l-.031.026c-.468.387-.949.596-1.47.642-.867.076-1.633-.172-2.278-.737-.871-.763-1.215-2.046-.838-3.121.391-1.114 1.176-1.786 2.335-1.996.569-.104 1.113-.033 1.616.208.362.174.701.424 1.036.764.266.27.626.288.939.049.151-.115.251-.3.27-.494.015-.165-.03-.316-.127-.425-.318-.356-.683-.658-1.084-.899" transform="translate(14.968 19.555)"/><path d="M17.854 41.081c-.275 0-.554.026-.839.08-.845.158-1.577.531-2.175 1.11-.845.818-1.25 1.818-1.274 3.145.006.026.013.086.021.156.021.181.049.43.104.665.214.917.708 1.682 1.467 2.276.57.446 1.232.733 1.967.851.651.105 1.246.076 1.819-.087.746-.211 1.398-.616 1.994-1.237.181-.189.208-.353.094-.585-.081-.163-.259-.292-.444-.32-.163-.025-.311.027-.427.149-.125.131-.263.245-.396.355l-.036.029c-.492.407-1 .627-1.551.676-.909.08-1.713-.181-2.39-.774-.915-.802-1.278-2.152-.881-3.283.41-1.168 1.234-1.872 2.449-2.093.6-.108 1.174-.035 1.707.22.378.181.731.441 1.077.794.212.215.49.229.742.034.118-.09.197-.236.212-.389.012-.124-.02-.235-.09-.313-.309-.345-.661-.637-1.05-.871-.651-.392-1.355-.589-2.101-.589m.015 8.643c-.256 0-.519-.022-.791-.066-.785-.127-1.493-.433-2.103-.911-.813-.637-1.343-1.458-1.573-2.443-.058-.252-.088-.511-.11-.7-.008-.065-.015-.123-.022-.17.024-1.435.457-2.5 1.363-3.377.641-.621 1.424-1.02 2.327-1.189 1.134-.212 2.192-.028 3.148.546.414.249.79.561 1.118.928.125.14.184.332.164.539-.022.234-.144.458-.327.598-.372.285-.818.261-1.136-.062-.323-.328-.648-.568-.994-.734-.475-.227-.988-.293-1.525-.196-1.102.201-1.85.839-2.222 1.899-.357 1.019-.03 2.237.796 2.96.614.537 1.343.774 2.168.701.489-.042.943-.242 1.388-.609l.031-.025c.131-.108.262-.216.375-.335.183-.191.427-.276.687-.237.282.043.543.233.667.483.168.343.12.644-.146.923-.635.66-1.33 1.09-2.127 1.316-.375.106-.759.16-1.157.16M10.678 46.493l-.708-.001c-.299-.001-.598-.003-.897.005-.1.002-.209.031-.291.078-.249.14-.366.489-.275.813.09.313.301.472.628.472l.306.001c.453.001.904.001 1.357-.003h.003c.127 0 .202.05.251.165.104.247.213.492.321.737l.145.329c.079.18.195.29.345.327.149.036.302.049.441.038.192-.017.397-.156.511-.345.076-.126.144-.327.04-.571-.253-.594-.449-1.091-.617-1.566-.118-.334-.462-.484-.71-.479-.284.003-.568.002-.852.001" transform="translate(14.968 19.555)"/><path d="m10.7968489 47.7080862c.1904542 0 .3211307.0861909.3920297.2557924.1000927.237025.2043559.4726599.3086191.7082947l.1570899.3558851c.0604726.1376274.1404078.2168675.244671.2425857.134152.0326692.2703892.0437906.3927247.0333642.1445783-.0125115.307924-.1251158.3968953-.2738646.0841056-.1397127.094532-.2863763.0305839-.4358203-.2530121-.5943002-.449722-1.0947636-.6193235-1.5750695-.0896663-.2523169-.3579703-.3892493-.5664967-.379518-.259963.0027803-.5192308.0027803-.7784986.0020852l-.78475445-.0020852c-.29888786-.0013902-.59638554-.0027804-.89388323.0048656-.0750695.0020852-.16056533.0243281-.22103799.0590825-.18767378.1049583-.27734013.387164-.20435589.6422613.07089898.2481465.22451344.3635311.48447637.3642262h.30583874c.45180723.000695.90361445.0013901 1.35542165-.0020853m1.404773 1.8968953c-.1209453 0-.2481465-.015292-.3732623-.0451808-.1355422-.0333642-.3232159-.1320667-.4462465-.4114921l-.1445783-.3287766c-.1167748-.2641335-.2224282-.5011585-.3225209-.7402688-.0250232-.0597776-.0465709-.0736793-.1139944-.0736793-.4545876.0034754-.90639485.0034754-1.36028734.0027803l-.30583874-.0006951c-.39481001 0-.66172382-.2008804-.77015755-.5803985-.110519-.387164.03753475-.8104726.34476367-.9828545.10356812-.0590825.23493976-.0938369.35936052-.0973123.30097312-.0069509.60125115-.0055607.90222428-.0048656l.78475436.0020852c.2578777.0006951.5157554.0006951.7729379-.0020852.3183504-.0139018.7145506.1904541.8514829.5783132.1675162.4740501.3621409.9689528.6130677 1.5569973.1000926.2349397.0827154.4858665-.0493513.7055143-.1390176.2328545-.3850788.3962002-.6255792.4170528-.0382299.0034755-.0771548.0048657-.1167748.0048657" transform="translate(14.968 19.555)"/><path d="m5.59355885 49.0039388c.11468953.284291.41427248.4789157.71802595.4670992.34337349-.0097312.54911956-.157785.66728452-.4789157.58039852-1.5778498 1.16913809-3.1522242 1.75787767-4.7259036l.3371177-.9008341c.01529194-.0417053.04587581-.0702039.0695088-.0931418.00695088-.0062558.01459685-.0132067.02085265-.0201575l.06533827-.0750695.06672845.0743744c.00556071.0069509.01320668.0139017.02015756.0201575.02502317.0229379.05491195.0514365.07020389.0938369l.16404078.4531974c.18767377.5164504.38160333 1.0502781.56024101 1.5799351.1007877.2988879.3044485.441381.6415662.4483318h.0020853c.2432808.0145969.4789156-.1070435.6165431-.3051436.1348471-.1939296.1543095-.4316497.0549119-.6693698-.2272938-.5421687-.4399907-1.1003244-.6457368-1.6397127-.0896663-.2363299-.1800278-.4719648-.2717794-.7069045-.0382298-.0993976-.0757646-.1981001-.1132993-.2974977-.0848008-.2231233-.1696015-.4469416-.2627433-.6672845-.1285913-.3051437-.3850788-.4754403-.78544951-.5199259-.03962002-.0041705-.08063021-.0069509-.12233549-.0069509-.36909176 0-.78475441.1786376-.92794254.6012512-.08688601.2564875-.18975904.5108897-.28985172.7569509-.04796107.1181649-.09522706.2363299-.14179796.3551899l-2.27363299 5.8324838c-.05560705.1438833-.05560705.2822058.00208526.4240037" transform="translate(14.968 19.555)"/><path d="M9.225 41.183c-.285 0-.662.131-.787.5-.088.26-.192.515-.292.763-.049.12-.096.238-.142.356l-2.274 5.832c-.042.108-.042.209.001.314.091.227.333.384.575.374.283-.008.437-.118.533-.381.577-1.57 1.164-3.136 1.749-4.702l.347-.927c.027-.074.076-.12.106-.148l.188-.213.178.201c.041.039.092.086.119.162l.164.454c.19.523.383 1.055.562 1.583.079.237.231.341.504.346.2.013.381-.081.493-.241.106-.152.12-.334.04-.526-.225-.537-.435-1.09-.639-1.623l-.028-.073c-.083-.218-.167-.437-.252-.655l-.114-.297c-.086-.229-.17-.447-.26-.662-.107-.255-.319-.392-.665-.43-.034-.003-.07-.006-.106-.006m-2.942 8.437c-.355 0-.693-.227-.828-.56-.071-.176-.072-.356-.003-.534l2.274-5.833c.047-.119.094-.238.142-.357.099-.246.202-.498.286-.749.175-.519.685-.702 1.069-.702.047 0 .093.003.138.008.453.05.758.256.906.61.092.218.177.44.261.662l.117.307c.085.218.169.437.252.657l.019.051c.211.553.421 1.102.644 1.636.12.286.095.575-.07.812-.171.245-.457.385-.748.368-.393-.008-.655-.193-.776-.549-.178-.526-.37-1.057-.556-1.57l-.167-.461c-.002-.006-.009-.013-.017-.021-.008.009-.015.017-.017.022l-.337.901c-.595 1.591-1.181 3.156-1.758 4.725-.138.377-.401.565-.803.576-.011.001-.022.001-.033.001M29.739 49.107c.075-.126.144-.327.04-.571-.254-.594-.449-1.091-.617-1.566-.117-.334-.45-.484-.709-.479-.284.003-.568.002-.852.001l-.708-.001c-.299-.001-.599-.003-.898.005-.099.003-.208.032-.291.078-.248.14-.366.49-.274.813.09.313.301.473.628.473h.306c.452.001.904.001 1.357-.002h.003c.127 0 .202.049.251.164.105.252.215.5.325.749l.141.319c.079.179.195.29.345.326.15.037.302.05.442.038.192-.017.397-.156.511-.345" transform="translate(14.968 19.555)"/><path d="m27.7192539 47.7080862c.1904542 0 .3211307.0861909.3927248.2557924.1049583.2502317.2147822.497683.3246061.7451344l.1411029.3190454c.0597775.1376274.1404078.2168675.2439759.2425857.1348471.0326692.2703892.0437906.3934198.0333642.1445783-.0125115.3072289-.1251158.3968953-.2738646.0834105-.1397127.0938369-.2863763.0305839-.4358203-.2530121-.5936051-.4504171-1.0940685-.6200186-1.5750695-.094532-.2662187-.3489342-.3857738-.5664967-.379518-.259963.0027803-.5199259.0027803-.7778036.0020852l-.7854494-.0020852c-.2981928-.0013902-.5956905-.0027804-.8938833.0048656-.0750695.0020852-.1598702.0243281-.2217331.0590825-.1869786.1049583-.2759499.387164-.2029657.6422613.070899.2481465.2245135.3635311.4837813.3642262h.3058388c.4518072.000695.9036144.0013901 1.3554216-.0020853m1.404773 1.8968953c-.1209453 0-.2474514-.015292-.3725672-.0451808-.1355422-.0333642-.323911-.1320667-.4462465-.4121872l-.1404078-.3176552c-.1112141-.2495366-.221038-.4990732-.3273865-.7506951-.0250232-.0597776-.0458758-.0736793-.1132993-.0736793-.4545876.0034754-.9070899.0034754-1.3602873.0027803l-.3058388-.0006951c-.3955051 0-.6617238-.2008804-.7708526-.5803985-.1098239-.387164.0375347-.8104726.3447636-.9828545.1042632-.0590825.2356349-.0945319.3600556-.0973123.3002781-.0069509.6012512-.0055607.9015292-.0048656l.7854495.0020852c.2571826.0006951.5150603.0006951.7729379-.0020852.3162651-.0027804.7075997.1723818.8507878.5783132.1682113.4740501.362836.9696479.6137627 1.5569973.1000927.2349397.0820204.4858665-.0493512.7055143v.0006951c-.1397127.2321594-.3850788.3955051-.6262743.4163577-.0375348.0034755-.0771548.0048657-.1167748.0048657" transform="translate(14.968 19.555)"/><path d="m28.3488647 44.872405c-.2279889-.5435588-.4413809-1.1031047-.6478221-1.6445783-.0896663-.2342447-.1786376-.4691844-.2696941-.7020389-.038925-.1007878-.0771548-.2022707-.1153846-.3030584-.0841057-.2217331-.1689064-.4434662-.2606581-.6617238-.1285912-.3058388-.3857738-.4754403-.7854495-.5199259-.03962-.0048656-.0806302-.0069509-.1223354-.0069509-.3690918 0-.7847544.1779426-.9279426.6012512-.086886.2571826-.1904541.512975-.2905468.7597312-.047266.1167748-.0952271.2342447-.1411029.3524097l-2.273633 5.8324837c-.0563021.1438833-.055607.2822058.0013902.4240037.1146895.2842911.4114921.4789157.7187211.4670992.3433735-.0097312.5491195-.157785.6672845-.4796107.584569-1.5889713 1.1781742-3.1758573 1.7717794-4.7627433l.3232159-.8632994c.015292-.0417053.0458759-.0702039.0695089-.0931418.0076459-.0069509.0145968-.0139017.0208526-.0208526l.0660334-.0743744.0660333.0743744c.0062558.0069509.0139018.0132067.0208527.0208526.023633.0222428.0542168.0507415.0695088.0931418l.1640407.4531974c.1876738.5164504.3816034 1.0502781.5595459 1.5799352.1007878.2988878.3051437.4413809.6422614.4483317h.0020852c.2453661.0145969.4789157-.1070435.6165431-.3051436.1348471-.1939296.1543096-.4316497.054912-.6693698" transform="translate(14.968 19.555)"/><path d="M26.147 41.183c-.285 0-.662.131-.787.5-.088.262-.193.519-.293.768-.047.117-.095.233-.14.35l-2.274 5.832c-.042.108-.042.209.001.314.091.227.33.383.574.374.283-.008.437-.118.534-.382.585-1.59 1.178-3.177 1.772-4.763l.323-.864c.027-.074.077-.12.106-.149l.189-.213.178.202c.041.039.091.086.119.161l.164.454c.19.523.383 1.055.561 1.583.08.237.231.341.504.346.194.012.382-.081.494-.241.106-.153.12-.334.04-.526-.229-.547-.443-1.107-.649-1.649l-.017-.042c-.083-.22-.168-.44-.253-.66l-.116-.303c-.083-.22-.167-.441-.259-.657-.107-.255-.318-.392-.665-.43-.035-.003-.07-.006-.106-.006m-2.941 8.437c-.355 0-.694-.227-.828-.56-.072-.176-.072-.356-.003-.534l2.274-5.833c.047-.118.094-.236.142-.354.099-.245.202-.498.287-.751.175-.519.685-.702 1.069-.702.047 0 .094.003.139.008.452.05.757.256.906.61.092.22.177.443.262.666l.115.302c.085.22.17.44.254.66l.016.042c.206.54.418 1.098.646 1.64.12.286.095.575-.07.812-.17.245-.456.386-.748.368-.393-.008-.655-.193-.776-.549-.177-.526-.37-1.057-.556-1.57l-.167-.461c-.002-.005-.008-.013-.016-.02-.008.008-.015.016-.017.021l-.323.865c-.593 1.586-1.187 3.172-1.772 4.762-.138.377-.4.565-.803.576-.01.001-.022.001-.032.001M41.404 48.01v-2.101h3.224c.377 0 .617-.201.676-.565.034-.209-.028-.427-.164-.586-.124-.143-.298-.222-.491-.222h-.011c-.881.014-1.777.012-2.644.01-.33-.001-.66-.002-.99-.002-.193 0-.386-.003-.517.025-.287.061-.504.293-.505.538-.003 1.23-.003 2.46.003 3.69.001.071.029.16.077.238.131.213.343.323.629.323 1.597.003 3.195.003 4.792-.002.088-.001.193-.028.28-.076.261-.141.387-.474.301-.791-.082-.303-.316-.484-.625-.484h-.006c-.915.006-1.829.006-2.743.004z" transform="translate(14.968 19.555)"/><path d="M40.898 44.693c-.145 0-.288.002-.381.022-.216.046-.386.218-.386.392-.003 1.23-.003 2.46.003 3.69 0 .033.015.095.055.161.104.169.268.252.502.252 1.597.003 3.195.003 4.792-.002.064 0 .145-.023.209-.058.201-.109.297-.37.229-.621-.065-.238-.24-.375-.482-.375-.919.007-1.833.006-2.748.004l-1.434-.001v-2.398h3.372c.304 0 .482-.148.53-.44.026-.166-.022-.34-.131-.465-.095-.11-.229-.17-.378-.17-.88.014-1.765.012-2.621.01h-.035c-.329-.001-.659-.002-.989-.002h-.054c-.017 0-.035 0-.051 0m1.905 4.817c-.704 0-1.408-.001-2.113-.002-.336-.001-.597-.138-.755-.395-.063-.101-.098-.217-.099-.315-.006-1.23-.006-2.461-.003-3.692.001-.313.268-.608.621-.683.135-.029.311-.029.496-.028h.053c.33 0 .66.001.99.002h.036c.854.002 1.738.004 2.607-.01.25 0 .465.097.617.273.165.191.238.455.198.707-.071.439-.37.69-.823.69h-3.075v1.803l1.137.001c.915.001 1.828.002 2.742-.004.381 0 .676.228.775.594.104.383-.053.787-.373.961-.111.059-.238.093-.35.094-.893.003-1.788.004-2.681.004M39.979 41.733l-.001.283c-.001.354-.003.708.005 1.062.003.104.033.217.08.3.139.245.468.373.781.307.362-.076.574-.33.555-.663-.006-.102-.004-.205-.003-.313l.001-.242h.994c1.005.001 2.011.001 3.017-.001.098 0 .182-.011.251-.032.29-.089.475-.425.422-.766-.053-.339-.304-.568-.626-.569h-.197c-.562 0-1.123 0-1.686 0-.95 0-1.9.001-2.85.002-.093 0-.194.015-.298.044-.274.075-.444.3-.446.589" transform="translate(14.968 19.555)"/><path d="M43.573 41.248c-.949 0-1.899 0-2.849.002-.081 0-.168.013-.26.038-.209.058-.334.224-.335.446l-.001.283c-.001.364-.003.711.005 1.058.002.08.025.168.06.229.106.187.374.288.622.236.288-.061.452-.251.437-.509-.006-.106-.005-.212-.003-.324l.002-.389h1.142c1.005.001 2.011.001 3.017-.001.082 0 .152-.009.206-.026.218-.067.361-.336.319-.601-.042-.269-.231-.443-.48-.443zm-2.89 2.603c-.311 0-.608-.152-.748-.399-.06-.105-.097-.241-.1-.37-.008-.35-.007-.7-.005-1.05l.001-.298c.001-.352.219-.639.555-.731.117-.033.231-.049.338-.049.95-.002 1.9-.002 2.85-.002h1.883c.398 0 .709.279.774.694.065.412-.167.821-.526.931-.083.026-.181.039-.293.039-1.006.001-2.013.002-3.018.001h-.846l-.001.094c-.001.106-.003.205.003.304.023.405-.241.725-.673.817-.065.014-.129.02-.193.02zM57.834 29.637c-.716 0-1.376.271-1.871.764-.494.491-.767 1.151-.768 1.859-.001.715.268 1.381.758 1.876.491.496 1.157.77 1.874.771 1.477 0 2.635-1.159 2.64-2.639.002-.712-.272-1.375-.77-1.868-.495-.49-1.156-.761-1.862-.763m-.004 5.568c-.801-.001-1.541-.307-2.089-.859-.546-.551-.845-1.291-.844-2.086.001-.788.305-1.522.856-2.07.552-.548 1.286-.85 2.067-.85.799.001 1.535.303 2.085.848.556.551.861 1.289.858 2.081-.005 1.646-1.294 2.936-2.934 2.936M24.269 29.637c-.716 0-1.376.271-1.871.764-.494.491-.767 1.151-.768 1.859-.001.715.268 1.381.758 1.876.491.496 1.157.77 1.874.771 1.477 0 2.635-1.159 2.64-2.639.002-.712-.272-1.375-.77-1.868-.495-.49-1.157-.761-1.862-.763m-.004 5.568c-.801-.001-1.541-.307-2.089-.859-.545-.551-.845-1.291-.844-2.086.001-.788.305-1.522.856-2.07.552-.548 1.286-.85 2.067-.85.799.001 1.535.303 2.085.848.556.551.861 1.289.858 2.081-.005 1.646-1.294 2.936-2.934 2.936M52.233 30.439l.001-1.936c0-.312-.142-.514-.433-.62-.088-.032-.179-.047-.271-.047-.162 0-.323.049-.453.143-.184.133-.28.34-.272.582.026.819.021 1.652.015 2.456-.003.342-.005.684-.005 1.026v.98c.001.872.001 1.744-.001 2.616-.001.261.117.443.359.554.076.035.168.06.275.074.207.026.43-.04.581-.173.138-.122.211-.293.209-.492-.008-1.72-.006-3.442-.006-5.163" transform="translate(14.968 19.555)"/><path d="M51.53 27.984c-.133 0-.263.041-.366.116-.144.104-.217.262-.211.456.026.818.02 1.649.015 2.454-.002.35-.004.692-.004 1.033l.001 1.111c0 .829 0 1.658-.002 2.486-.001.202.083.332.272.418.062.028.14.049.232.061.165.022.345-.033.464-.137.106-.095.16-.222.159-.38-.008-1.721-.006-3.442-.006-5.164h.149-.149l.001-1.936c0-.248-.104-.396-.335-.48-.07-.025-.145-.038-.22-.038m.009 8.437c-.037 0-.074-.002-.111-.007-.122-.015-.229-.044-.318-.085-.297-.137-.446-.369-.446-.69.002-.828.002-1.656.001-2.484v-1.111c0-.342.002-.685.004-1.027.006-.809.01-1.638-.015-2.451-.009-.293.108-.544.334-.706.24-.174.578-.22.863-.116.352.127.531.384.531.76l-.001 1.937c-.001 1.72-.003 3.441.005 5.162.001.245-.089.453-.26.604-.155.138-.374.216-.588.216M49.19 29.289c.121-.001.241-.029.329-.076.256-.135.386-.457.309-.766-.077-.314-.289-.518-.54-.519-.519-.003-.992-.005-1.431-.005-.473 0-.907.002-1.321.006-.338.003-.677.243-.674.695.01 1.695.009 3.418.008 5.084l-.003 1.91c-.001.033-.002.063.003.086l.01.045c.018.076.035.147.069.203.164.272.514.386.869.286.301-.085.453-.306.453-.654v-6.291l.684.001c.411.001.823.002 1.235-.005" transform="translate(14.968 19.555)"/><path d="M47.856 28.072c-.472 0-.906.001-1.32.006-.256.003-.53.174-.527.545.01 1.695.008 3.419.008 5.086l-.002 1.91c-.001.023-.003.04-.001.053l.01.043c.016.065.03.126.051.161.13.213.411.301.702.22.235-.067.345-.229.345-.512v-6.439l.833.001c.41.001.822.002 1.233-.004.097-.001.194-.024.262-.058.195-.104.295-.356.234-.599-.061-.245-.217-.405-.397-.406-.519-.003-.991-.005-1.43-.005m-1.293 8.35c-.311 0-.59-.141-.742-.393-.046-.075-.066-.162-.086-.245l-.01-.045c-.01-.042-.009-.086-.008-.125l.002-1.906c.002-1.666.003-3.389-.008-5.083-.003-.549.411-.84.822-.845.801-.008 1.677-.008 2.755-.001.32.002.589.25.683.632.093.375-.069.767-.384.934-.111.058-.251.09-.396.092-.414.007-.826.006-1.239.005l-.535-.001v6.141c0 .528-.305.725-.562.797-.099.028-.198.042-.294.042M43.809 29.285c.231.021.471.011.678 0 .072-.003.154-.03.22-.072.25-.156.351-.402.302-.735-.053-.352-.306-.577-.623-.555-.055.003-.111.003-.167.001l-.073-.001c-.033-.003-.065-.001-.097-.002-.068-.002-.133-.005-.194.004-.099.015-.202.035-.277.079-.237.137-.364.464-.295.76.076.326.248.496.527.52" transform="translate(14.968 19.555)"/><path d="M43.957 28.069c-.028 0-.054.001-.079.005-.081.012-.171.028-.225.06-.18.104-.279.366-.225.597.078.336.252.393.395.406h.001c.216.019.443.01.658-.001.045-.002.104-.022.149-.049.197-.123.273-.315.233-.586-.041-.273-.229-.444-.466-.429-.06.003-.12.003-.181.002l-.071-.001c-.029-.002-.044-.001-.058-.002h-.044c-.031-.001-.059-.002-.086-.002m.149 1.377c-.104 0-.207-.003-.309-.013-.347-.031-.569-.244-.659-.635-.083-.357.074-.753.366-.922.097-.057.216-.081.33-.097.067-.01.138-.008.213-.006l.038.001c.026 0 .053 0 .079.003h.058c.053.001.104.002.156-.001.392-.031.716.252.78.682.058.39-.07.695-.37.882-.088.055-.194.09-.291.095-.126.006-.257.012-.389.012M24.27 29.313c.792.001 1.534.306 2.089.856.561.555.869 1.301.867 2.1-.005 1.662-1.305 2.962-2.961 2.962h-.004c-.804-.001-1.551-.309-2.104-.867-.551-.556-.853-1.303-.851-2.105.001-.795.308-1.537.864-2.089.557-.553 1.298-.858 2.086-.858zm-2.954-.297c-.972.846-1.461 1.93-1.492 3.311l.011.131c.01.118.022.26.039.401.09.731.363 1.4.811 1.985.756.987 1.79 1.564 3.074 1.714.677.079 1.358.003 2.023-.229.757-.262 1.399-.7 1.908-1.301.484-.571.796-1.235.929-1.973.108-.599.096-1.192-.035-1.763-.226-.978-.736-1.782-1.517-2.388-1.061-.824-2.299-1.118-3.679-.876-.777.136-1.474.469-2.071.988z" transform="translate(14.968 19.555)"/><path d="M24.255 29.461c-.749 0-1.453.29-1.982.815-.527.525-.818 1.229-.82 1.984-.001.762.286 1.472.808 1.999.525.53 1.234.822 1.998.823 1.576 0 2.811-1.236 2.816-2.814.002-.758-.289-1.467-.822-1.994-.528-.523-1.233-.812-1.985-.813zm.009 5.919c-.848-.001-1.632-.325-2.213-.911-.578-.584-.896-1.369-.895-2.21.001-.835.323-1.614.907-2.194.585-.582 1.364-.902 2.192-.902h.015c.831.002 1.61.321 2.194.899.59.584.913 1.367.911 2.206-.006 1.744-1.371 3.111-3.11 3.111zm-2.851-6.252c-.94.817-1.412 1.864-1.442 3.202l.011.115c.01.117.022.257.038.396.086.705.35 1.348.782 1.914.73.954 1.73 1.511 2.973 1.656.655.076 1.314.001 1.957-.222.731-.254 1.351-.676 1.843-1.257.466-.551.768-1.191.896-1.904.104-.579.092-1.152-.034-1.703-.218-.943-.71-1.719-1.463-2.304-1.026-.797-2.224-1.082-3.562-.847-.751.131-1.423.453-1.999.954zm2.86 7.609c-.178 0-.355-.01-.533-.031-1.326-.155-2.394-.751-3.174-1.771-.466-.608-.748-1.3-.841-2.058-.017-.143-.029-.287-.04-.407l-.011-.13c.032-1.443.537-2.561 1.543-3.437.619-.537 1.339-.881 2.144-1.022 1.424-.25 2.7.054 3.795.905.809.628 1.337 1.46 1.571 2.472.136.591.148 1.204.038 1.823-.138.765-.462 1.452-.962 2.043-.527.622-1.191 1.075-1.973 1.346-.512.177-1.033.267-1.556.267zM57.835 29.313c.792.001 1.534.306 2.09.856.56.555.868 1.301.866 2.1-.005 1.662-1.305 2.962-2.961 2.962h-.004c-.804-.001-1.551-.309-2.103-.867-.551-.556-.854-1.303-.852-2.105.001-.795.309-1.537.864-2.089.557-.553 1.298-.858 2.086-.858zm-2.953-.297c-.973.846-1.462 1.93-1.493 3.311l.011.131c.01.118.022.26.04.401.089.731.362 1.4.81 1.985.756.987 1.79 1.564 3.074 1.714.677.079 1.358.003 2.023-.229.757-.262 1.399-.7 1.908-1.301.484-.571.796-1.235.929-1.973.107-.599.095-1.192-.036-1.763-.225-.978-.736-1.782-1.517-2.388-1.06-.824-2.298-1.118-3.678-.876-.777.136-1.474.469-2.071.988z" transform="translate(14.968 19.555)"/><path d="M57.821 29.461c-.749 0-1.453.29-1.982.815-.527.525-.818 1.229-.82 1.984-.001.762.286 1.472.809 1.999.524.53 1.234.822 1.998.823 1.576 0 2.812-1.236 2.816-2.814.001-.758-.29-1.467-.822-1.994-.529-.523-1.233-.812-1.985-.813zm.01 5.919c-.849-.001-1.633-.325-2.214-.911-.578-.585-.896-1.369-.895-2.21.001-.835.324-1.614.908-2.194.585-.582 1.363-.902 2.191-.902h.015c.831.002 1.61.321 2.194.899.589.584.913 1.367.91 2.206-.006 1.744-1.371 3.111-3.109 3.111zm.034-7.286c-.288 0-.583.026-.886.08-.75.131-1.423.453-1.999.954-.94.817-1.412 1.864-1.442 3.202l.011.115c.01.117.022.257.038.396.086.705.35 1.349.781 1.914.731.954 1.731 1.511 2.974 1.656.655.076 1.313.001 1.957-.222.732-.254 1.351-.676 1.843-1.257.466-.551.769-1.191.896-1.904.104-.579.092-1.152-.034-1.703-.218-.944-.71-1.719-1.463-2.304-.793-.617-1.69-.927-2.675-.927zm-.025 8.643c-.178 0-.355-.01-.533-.031-1.326-.155-2.394-.751-3.175-1.771-.464-.608-.747-1.3-.84-2.058-.017-.143-.029-.287-.039-.407l-.012-.13c.032-1.443.537-2.561 1.544-3.437.618-.537 1.339-.881 2.143-1.022 1.424-.25 2.701.054 3.796.905.808.628 1.337 1.46 1.57 2.472.136.592.148 1.205.038 1.823-.138.765-.462 1.451-.962 2.043-.527.622-1.191 1.075-1.973 1.346-.512.177-1.034.267-1.556.267zM5.072 30.765l.06.079c.017.024.035.049.05.074l.733 1.21c.78 1.289 1.56 2.577 2.334 3.87.169.283.4.436.73.484.28.04.534-.023.712-.177.175-.152.272-.387.272-.662l-.001-6.89c0-.133-.006-.261-.072-.371-.172-.282-.529-.399-.888-.293-.215.063-.47.229-.466.66.009 1.162.012 2.324.015 3.486l.004 1.507-.158.044-.056-.083c-.015-.022-.029-.042-.043-.065l-.532-.877c-.875-1.442-1.751-2.883-2.627-4.325-.038-.063-.083-.117-.13-.158-.243-.211-.539-.279-.876-.203-.439.099-.619.325-.619.782l.001 1.584c0 1.796.001 3.592-.003 5.388-.001.246.088.416.28.533.263.161.538.17.815.027.23-.119.332-.309.329-.617-.007-1.144-.008-2.288-.01-3.433l-.002-1.373v-.164z" transform="translate(14.968 19.555)"/><path d="m5.131 30.598.119.156c.022.031.042.058.059.087l.806 1.333c.756 1.248 1.511 2.496 2.26 3.748.146.244.339.371.623.413.238.033.448-.017.594-.143.142-.123.22-.318.22-.55v-6.89c0-.115-.004-.216-.051-.293-.136-.222-.426-.313-.719-.228-.245.072-.362.241-.36.516.009 1.135.012 2.27.015 3.405l.004 1.702-.371.102-.115-.172c-.018-.026-.033-.048-.047-.071l-.533-.877c-.875-1.442-1.75-2.883-2.627-4.324-.031-.049-.065-.092-.101-.123-.209-.181-.453-.237-.746-.17-.37.083-.502.25-.502.637v1.8c.001 1.724.001 3.448-.002 5.172-.001.195.062.316.209.406.219.135.437.142.668.022.179-.092.251-.233.25-.484-.007-1.144-.009-2.289-.011-3.434l-.002-1.374.001-.28zm4.01 6.044c-.06 0-.122-.005-.184-.014-.372-.054-.645-.235-.836-.554-.749-1.251-1.505-2.5-2.26-3.747l-.789-1.304.001 1.314c.002 1.145.004 2.289.011 3.433.002.366-.128.604-.41.75-.322.167-.654.155-.961-.033-.237-.145-.352-.361-.351-.66.003-1.724.002-3.448.002-5.171v-1.8c0-.528.227-.813.735-.927.38-.086.728-.005 1.005.236.058.05.114.117.16.193.877 1.441 1.752 2.883 2.628 4.325l.512.843-.003-1.373c-.003-1.134-.006-2.269-.015-3.404-.003-.409.201-.694.573-.804.425-.125.849.019 1.057.359.087.142.095.3.095.448l.001 6.89c0 .319-.115.594-.323.775-.171.148-.396.226-.647.226zM12.231 36.361c.263.161.537.171.815.027.229-.119.332-.309.329-.617-.007-1.144-.009-2.288-.011-3.433l-.002-1.538.154-.036.056.081c.017.024.034.048.049.073l.745 1.231c.776 1.282 1.552 2.563 2.322 3.849.169.282.4.435.73.483.28.04.533-.023.712-.177.175-.152.272-.387.272-.662v-6.89c0-.133-.006-.261-.073-.371-.172-.282-.528-.399-.887-.293-.215.063-.471.229-.467.66.009 1.162.012 2.324.015 3.486l.003 1.507-.158.043-.055-.081c-.015-.022-.03-.044-.043-.067l-.747-1.228c-.804-1.325-1.608-2.649-2.413-3.972-.038-.063-.083-.117-.131-.158-.243-.211-.537-.279-.875-.203-.439.099-.619.325-.619.782v1.631c.001 1.78.001 3.56-.002 5.34-.001.246.088.416.28.533" transform="translate(14.968 19.555)"/><path d="m13.58 30.596.115.165c.018.026.038.053.054.081l.744 1.231c.776 1.282 1.552 2.563 2.322 3.849.146.244.339.371.623.413.238.033.448-.017.594-.143.142-.123.22-.318.22-.55v-6.89c0-.115-.004-.216-.051-.293-.136-.223-.425-.313-.718-.228-.245.072-.362.241-.36.516.008 1.111.012 2.223.015 3.334l.004 1.772-.37.102-.115-.17c-.016-.024-.032-.048-.047-.072l-.746-1.229c-.804-1.325-1.608-2.649-2.414-3.972-.03-.049-.065-.092-.101-.123-.208-.18-.452-.236-.745-.17-.37.083-.502.25-.502.637v1.631c.001 1.78.001 3.56-.002 5.34-.001.195.062.316.209.406.219.134.438.141.669.022.179-.092.251-.233.25-.484-.008-1.144-.009-2.289-.011-3.434l-.002-1.655zm4 6.047c-.06 0-.121-.005-.184-.014-.372-.054-.646-.235-.836-.554-.769-1.285-1.546-2.567-2.322-3.849l-.728-1.202.002 1.314c.002 1.145.004 2.289.01 3.433.003.366-.128.604-.409.749-.323.168-.655.156-.961-.032-.236-.145-.352-.361-.351-.66.003-1.78.003-3.56.003-5.34v-1.631c0-.528.226-.813.734-.927.386-.087.724-.008 1.006.235.058.051.114.118.16.194.806 1.323 1.61 2.648 2.414 3.972l.726 1.195-.004-1.443c-.002-1.111-.006-2.223-.014-3.334-.003-.409.2-.694.573-.804.425-.125.849.019 1.057.359.087.142.094.3.094.448l.001 6.89c0 .319-.115.594-.323.775-.171.148-.396.226-.647.226zM63.519 28.856v1.584c0 1.796.001 3.592-.003 5.388 0 .246.089.416.28.533.263.161.538.17.815.027.23-.119.332-.309.329-.617-.007-1.139-.008-2.278-.01-3.418l-.003-1.553.154-.036.056.079c.018.024.035.049.05.074l.733 1.21c.78 1.289 1.56 2.577 2.335 3.87.169.283.4.436.729.484.28.04.534-.023.712-.177.175-.152.272-.387.272-.662l-.001-6.89c0-.133-.005-.261-.072-.371-.172-.282-.529-.399-.887-.293-.215.063-.471.229-.467.66.008 1.146.012 2.292.015 3.438l.004 1.555-.158.044-.055-.083c-.015-.022-.03-.042-.043-.065l-.532-.877c-.876-1.442-1.75-2.883-2.627-4.324-.038-.063-.083-.118-.131-.158-.243-.211-.537-.279-.875-.203-.439.099-.618.325-.618.782" transform="translate(14.968 19.555)"/><path d="m65.145 30.596.113.163c.018.026.038.054.055.082l.806 1.332c.756 1.248 1.512 2.497 2.261 3.749.146.244.339.371.623.412.238.033.448-.017.594-.142.142-.123.22-.318.22-.55v-6.89c0-.115-.004-.216-.051-.293-.136-.223-.425-.314-.718-.229-.244.072-.362.241-.36.516.008 1.146.012 2.292.015 3.439l.004 1.669-.37.102-.115-.171c-.016-.023-.031-.047-.047-.071l-.532-.877c-.876-1.442-1.752-2.883-2.628-4.324-.03-.05-.065-.092-.1-.123-.209-.181-.453-.236-.746-.17-.37.083-.502.25-.502.637v1.584c.001 1.796.001 3.592-.002 5.388-.001.195.062.316.209.407.218.134.437.141.668.022.179-.092.251-.232.249-.484-.007-1.139-.008-2.279-.01-3.418l-.003-1.671zm4.001 6.046c-.06 0-.122-.005-.184-.013-.372-.054-.646-.235-.837-.554-.749-1.252-1.504-2.5-2.26-3.748l-.789-1.303.002 1.33c.002 1.139.003 2.278.011 3.417.002.366-.129.604-.41.75-.322.167-.654.156-.961-.032-.237-.146-.352-.361-.351-.66.003-1.796.003-3.592.003-5.388l-.001-1.584c0-.527.227-.813.735-.927.386-.088.725-.008 1.006.236.058.051.113.117.161.194.876 1.441 1.752 2.883 2.627 4.324l.512.843-.003-1.34c-.003-1.146-.006-2.291-.015-3.437-.003-.409.2-.694.573-.804.424-.125.849.019 1.057.358.088.143.094.3.094.449l.001 6.89c0 .319-.115.594-.323.775-.172.147-.397.225-.647.225zM32.555 34.195c-.017-.026-.026-.054-.033-.075l-.32-.864c-.598-1.605-1.195-3.21-1.794-4.814-.026-.069-.067-.137-.114-.192-.121-.138-.321-.211-.524-.211-.142 0-.286.035-.406.111-.311.195-.419.509-.289.84.589 1.498 1.173 2.997 1.756 4.497l.604 1.554c.038.097.075.195.111.293.08.214.162.436.259.644.184.393.541.486.81.494.524-.001.854-.194 1.008-.591.262-.678.525-1.355.79-2.032l1.903-4.877c.058-.148.07-.268.038-.378-.087-.308-.293-.491-.613-.543-.304-.051-.666.065-.785.436-.081.25-.177.5-.27.741-.045.115-.089.229-.132.345l-1.488 4c-.074.201-.149.402-.227.601-.02.053-.076.1-.133.112-.077.017-.132-.064-.15-.09" transform="translate(14.968 19.555)"/><path d="M29.769 28.187c-.12 0-.236.031-.327.088-.25.156-.333.397-.229.66.569 1.446 1.132 2.894 1.695 4.342l.665 1.709c.035.091.07.183.104.275.086.232.168.45.262.653.122.261.35.398.68.409.457-.001.733-.158.864-.496.262-.678.526-1.355.79-2.032l1.904-4.877c.044-.116.056-.206.034-.284-.072-.251-.233-.394-.495-.437-.224-.038-.521.028-.619.334-.081.252-.178.502-.271.742-.047.121-.091.235-.133.35l-1.503 4.038c-.07.188-.14.377-.213.564-.038.099-.136.181-.242.204-.063.014-.19.015-.303-.152-.03-.044-.044-.088-.053-.113l-.359-.968c-.583-1.568-1.167-3.137-1.752-4.704-.019-.051-.051-.104-.087-.146-.088-.101-.242-.161-.412-.161m2.847 8.434c-.443-.015-.778-.22-.946-.58-.099-.214-.183-.439-.264-.655-.041-.111-.074-.201-.11-.291l-.665-1.71c-.563-1.447-1.127-2.895-1.695-4.341-.156-.397-.022-.788.349-1.02.338-.213.877-.151 1.12.129.059.067.11.152.142.237.585 1.568 1.169 3.136 1.753 4.705l.361.974c.006.021.011.035.017.042v.001c.006.008.01.013.014.018.003-.003.007-.007.008-.01.073-.186.142-.373.212-.56l1.503-4.038c.043-.116.088-.231.133-.347.094-.243.188-.488.267-.733.147-.456.584-.597.951-.537.376.062.63.286.733.649.04.143.026.293-.044.473l-1.903 4.877c-.264.677-.527 1.354-.79 2.032-.175.455-.561.686-1.146.687M.19 31.235c-.002.343-.004.686-.004 1.029v.97c.001.872.001 1.743-.001 2.615-.001.262.116.443.357.555.083.038.181.064.286.075.212.024.428-.044.578-.179.134-.121.204-.289.204-.486-.008-1.721-.006-3.442-.006-5.163l.001-1.937c0-.311-.13-.501-.423-.617-.088-.035-.184-.051-.279-.051-.159 0-.319.047-.448.138-.188.133-.288.341-.279.585.026.822.02 1.657.015 2.465" transform="translate(14.968 19.555)"/><path d="m.339 31.236-.001.109c-.002.306-.004.612-.004.919l.001.97c0 .872.001 1.743-.002 2.615-.001.203.083.332.272.42.068.031.151.053.238.063.171.018.343-.034.462-.142.102-.092.156-.221.155-.375-.007-1.721-.006-3.443-.005-5.164l.001-1.936c0-.251-.092-.385-.329-.478-.184-.073-.423-.044-.585.07-.149.105-.224.263-.218.459.026.833.02 1.703.015 2.47m.571 5.397c-.033 0-.066-.002-.099-.006-.12-.013-.234-.043-.332-.088-.296-.136-.445-.369-.444-.69.003-.872.002-1.743.001-2.614v-.97c0-.307.002-.614.004-.921l.001-.109c.006-.765.011-1.631-.015-2.459-.01-.296.112-.548.343-.711.243-.171.591-.212.867-.103.348.137.517.384.517.755l-.001 1.936c-.001 1.721-.002 3.442.006 5.162 0 .241-.087.447-.254.597-.158.142-.374.222-.594.222M39.989 28.029c-.04-.004-.081-.007-.123-.007-.369 0-.785.178-.927.601-.089.263-.194.523-.296.776-.047.115-.093.231-.138.348l-2.271 5.821c-.056.144-.055.282.002.424.115.284.414.475.718.466.339-.009.551-.161.667-.478.58-1.577 1.168-3.152 1.757-4.725l.333-.89c.016-.043.046-.074.07-.099.008-.008.017-.016.023-.024l.068-.082.068.083c.006.008.014.016.022.024.024.025.054.056.07.099l.162.448c.187.514.381 1.046.559 1.574.101.299.304.441.641.448h.002c.245.013.48-.107.617-.305.134-.193.154-.432.055-.669-.227-.542-.439-1.1-.645-1.64-.09-.24-.182-.48-.275-.719l-.107-.279c-.085-.226-.172-.452-.266-.674-.129-.306-.386-.476-.785-.521" transform="translate(14.968 19.555)"/><path d="m39.8663346 28.1706209c-.2849861 0-.6617238.1306766-.7868397.4997683-.0903614.268304-.1960148.5296571-.2988879.7833643-.0493512.1223355-.0938368.2342446-.1376274.3461538l-2.2701575 5.8213624c-.0424004.1084337-.0424004.2078313.000695.3141798.0903615.2238183.3343374.3781279.576228.3739574.2773402-.007646.4365153-.1216404.5310473-.3809083.5706673-1.5486562 1.1482854-3.0952271 1.7259036-4.6411029l.3649212-.9752085c.0264134-.0722891.0750695-.1209453.1035682-.150139l.1981-.237025.181418.2224281c.0430955.0444857.0903615.0938369.1167748.1661261l.1626506.4483318c.189064.5192307.3822984 1.0495829.5595459 1.5771547.0806302.2370251.2314643.3412883.5039388.346849.1946247.0097312.3829935-.0827155.4935125-.2411956.1056534-.1529193.1202503-.3350324.0403151-.5268767-.2279888-.5442539-.4406858-1.1031047-.6471269-1.6431881-.0966173-.2537072-.1855885-.4865617-.2745598-.7187211l-.1077386-.2794254c-.0875811-.2286839-.1716868-.450417-.2641335-.6693698-.1077386-.2557924-.3190454-.3920296-.6651993-.4302595h-.000695c-.0340594-.0041705-.0695089-.0062558-.1056534-.0062558m-2.9332716 8.4369787c-.3593605 0-.7013438-.2272938-.8354958-.5602409-.070899-.1765524-.0715941-.3558851-.0027804-.5345227l2.2708527-5.8213624c.0437905-.1126043.0896663-.2252085.1348471-.3378128.1056533-.260658.2099166-.5178406.2974976-.7784986.1751622-.5185357.6846618-.7020389 1.0683504-.7020389.047266 0 .0938369.0027803.1397127.0076459.4518072.0500464.7562558.2557924.9056997.6109824.0938369.2217331.1800278.4462465.2662187.6721502l.1084337.2849861c.0903615.2321594.1793328.4657089.268304.6985634.212697.5588508.4253939 1.1156164.6506024 1.6556998.1195552.2863762.0952271.5741427-.0695088.8118628-.1696014.2425857-.4566728.3809083-.7479147.3677016-.3934198-.007646-.6561631-.1925394-.7764133-.5491196-.1765524-.5247915-.3683967-1.0530584-.5546803-1.5646432l-.1647359-.4538925c-.0034754-.008341-.0111214-.0187673-.0201575-.0284986-.0104263.0111214-.0187674.0208527-.0208527.0291937l-.3656163.9759036c-.5776181 1.5451808-1.1552363 3.0910566-1.7245134 4.6397127-.1390176.3760427-.4010658.5644115-.8035218.576228-.007646 0-.015987 0-.0243281 0" transform="translate(14.968 19.555)"/><path d="m40.6129981 33.4787998c-.2995829-.0013902-.5984708-.0027803-.8973586.0048656-.1007878.0027804-.2092215.031279-.2905468.0778499-.2488415.1397127-.3670065.4886469-.2745598.8125579.0882762.3134847.2995829.4719648.6262743.4726599h.339203c.4413809.0006951.8827618.0013902 1.3227525-.0020853h.0048657c.1272011 0 .2022706.0493513.2509267.1640408.1028731.2453661.2106117.4886469.3190455.7319277l.1473586.3350324c.078545.1793328.1946247.2891567.3447637.3266914.1383225.0340593.2870714.0479611.4316497.038925.1911492-.0118165.3989805-.1487489.5164504-.3398981.0785449-.1272011.1508341-.3301668.0451807-.5769231-.253012-.5929101-.4483318-1.0905931-.6165431-1.5660333-.1167748-.3308619-.4441612-.4796108-.7013438-.4796108h-.007646c-.284291.0027804-.5692771.0020853-.8535681.0013902z" transform="translate(14.968 19.555)"/><path d="M41.438 34.696c.191 0 .322.086.393.255.103.245.211.487.318.73l.148.334c.06.138.14.217.245.243.125.031.259.043.386.035.143-.009.307-.12.4-.269.088-.141.099-.29.035-.441-.255-.597-.452-1.098-.62-1.575-.092-.261-.356-.38-.562-.38-.28.003-.555.002-.83.001l-.738-.001c-.298-.002-.596-.003-.894.005-.076.002-.161.024-.221.058-.188.106-.277.387-.204.642.071.249.224.364.483.365h.425c.412.001.824.001 1.237-.002m1.41 1.897c-.127 0-.256-.015-.379-.046-.136-.034-.323-.133-.445-.412l-.147-.334c-.108-.244-.217-.489-.32-.735-.023-.056-.042-.073-.113-.073-.416.003-.829.003-1.242.003l-.425-.001c-.396 0-.662-.201-.769-.581-.111-.387.038-.81.345-.983.102-.058.234-.093.359-.097.3-.008.601-.006.902-.005l.737.001c.275.001.548.001.822-.001.316 0 .71.181.85.579.167.471.361.965.613 1.557.102.238.082.491-.055.714-.144.234-.393.395-.634.41-.033.002-.065.003-.099.003M31.378 15.714c-.685 0-1.332.263-1.823.742-.503.492-.785 1.157-.793 1.873-.016 1.457 1.13 2.625 2.609 2.661 1.478-.002 2.648-1.158 2.662-2.632.015-1.464-1.137-2.625-2.623-2.643zm-.008 5.573h-.004c-1.644-.038-2.918-1.339-2.901-2.962.009-.795.322-1.535.883-2.082.546-.533 1.266-.826 2.03-.826h.037c1.651.021 2.932 1.314 2.916 2.944-.016 1.64-1.317 2.926-2.961 2.927zM60.38 14.913c.007 1.544.007 3.088.006 4.633 0 .788 0 1.575.001 2.363 0 .115.011.2.036.268.108.295.458.462.831.395.345-.061.551-.302.551-.642l-.008-5.108.131.072c.065.036.096.079.121.119l2.998 4.958c.017.028.034.057.05.086.051.089.1.173.163.239.252.266.569.351.967.258.432-.1.608-.322.608-.765l.001-6.96c0-.202-.042-.332-.14-.436-.22-.233-.564-.31-.858-.191-.304.123-.432.328-.43.687.01 1.148.013 2.296.016 3.443l.003 1.499-.054.022-.033-.081.017.088-.066.028-.075-.08c-.015-.023-.031-.046-.045-.07l-.703-1.157c-.819-1.348-1.638-2.696-2.457-4.044-.04-.064-.084-.118-.13-.157-.292-.243-.637-.296-1.022-.157-.317.114-.478.347-.476.692" transform="translate(14.968 19.555)"/><path d="m61.646 16.57.352.193c.096.053.145.12.177.171l3.041 5.032c.056.097.099.173.15.227.215.228.478.296.825.215.364-.085.494-.247.494-.621v-6.96c.001-.2-.047-.279-.099-.334-.178-.189-.458-.251-.695-.155-.247.1-.338.248-.335.547.01 1.148.013 2.297.015 3.445l.003 1.599-.324.133-.166-.182c-.015-.023-.03-.045-.044-.069l-.702-1.156c-.819-1.348-1.638-2.696-2.458-4.043-.03-.05-.065-.092-.098-.12-.252-.211-.539-.254-.876-.131-.259.092-.378.268-.377.552.006 1.513.006 3.025.005 4.538l.001 2.457c0 .096.009.167.027.217.084.227.363.354.665.3.273-.049.429-.229.429-.496zm4.285 6.168c-.304 0-.566-.114-.781-.34-.075-.08-.13-.176-.184-.268l-.048-.083-2.973-4.917.007 4.798c.001.413-.257.715-.673.789-.444.08-.864-.127-.997-.491-.031-.084-.044-.185-.044-.318l-.001-2.458c0-1.513.001-3.025-.006-4.538-.001-.409.197-.697.574-.833.432-.156.836-.093 1.168.184.058.049.114.115.161.193.82 1.348 1.639 2.696 2.457 4.044l.684 1.125-.003-1.296c-.003-1.148-.006-2.295-.016-3.443-.003-.418.163-.68.522-.826.35-.142.761-.05 1.023.227.125.133.181.299.181.538v6.96c0 .514-.224.794-.724.91-.114.027-.224.04-.327.04zM37.297 14.857c-.001 2.371-.001 4.741.001 7.112 0 .074.008.132.024.179.106.311.456.489.834.424.261-.046.566-.245.564-.656-.006-1.488-.005-2.976-.003-4.463l.001-1.837.113-.007c.02-.002.035-.003.049-.003h.508c.507-.001 1.013-.001 1.52.001.133.001.24.012.335.035.496.125.882.481 1.033.952.15.47.043.982-.288 1.37-.241.284-.551.446-.897.469-.158.01-.316.013-.474.014-.142.001-.285.003-.427.012-.085.005-.209.022-.308.076-.257.139-.382.472-.297.791.058.216.204.477.569.494.338.015.629.013.891-.008.252-.019.518-.048.758-.127 1.123-.366 1.781-1.115 1.957-2.228.152-.957-.128-1.781-.83-2.447-.53-.503-1.2-.763-1.994-.772-.437-.006-.874-.004-1.312-.003l-.585.001-.316-.001c-.106 0-.211-.001-.316-.001-.138 0-.274.001-.411.003-.405.006-.7.266-.701.619" transform="translate(14.968 19.555)"/><path d="M37.446 14.857c-.001 2.371-.001 4.741 0 7.111 0 .057.006.101.015.131.083.241.363.378.668.325.074-.013.443-.097.441-.509-.006-1.487-.005-2.976-.004-4.463l.001-1.975.252-.017c.023-.002.04-.003.058-.003l.509-.001c.507 0 1.014-.001 1.522.002.145.001.263.013.37.04.546.138.972.531 1.139 1.051.166.519.048 1.084-.316 1.512-.268.315-.613.495-1 .521-.161.011-.321.013-.482.015-.14.002-.281.003-.42.011-.1.006-.188.027-.246.059-.198.107-.292.368-.224.622.099.368.349.379.432.383.332.015.618.013.872-.007.243-.019.498-.046.725-.12 1.064-.346 1.689-1.056 1.856-2.109.143-.906-.122-1.686-.786-2.317-.501-.475-1.138-.722-1.891-.731-.411-.006-.822-.004-1.232-.003l-.663.002-.631-.001c-.136 0-.272 0-.409.002-.326.005-.553.197-.553.47m.553 7.877c-.378 0-.708-.209-.82-.539-.021-.062-.031-.136-.031-.226-.001-2.371-.001-4.741-.001-7.112.001-.438.357-.76.847-.767.138-.002.275-.002.413-.002l.631.001.662-.001c.413-.001.824-.002 1.236.003.831.01 1.535.284 2.094.813.74.702 1.034 1.57.875 2.579-.186 1.172-.879 1.962-2.058 2.345-.257.084-.534.113-.794.133-.266.021-.564.023-.908.008-.355-.015-.605-.23-.706-.603-.103-.385.052-.789.37-.961.123-.067.269-.088.37-.094.145-.008.289-.01.434-.012.155-.002.311-.003.466-.014.304-.02.579-.164.793-.416.297-.349.394-.808.26-1.229-.136-.422-.482-.74-.929-.853-.083-.021-.177-.031-.298-.031-.507-.002-1.013-.002-1.52-.001l-.521.001-.001 1.697c-.001 1.487-.002 2.975.004 4.462.002.472-.344.744-.687.803-.061.011-.122.016-.181.016M46.481 21.149v-2.101h3.223c.377 0 .617-.202.676-.565.034-.209-.027-.428-.164-.586-.127-.146-.3-.22-.503-.222-.881.013-1.777.012-2.644.01-.329-.001-.66-.002-.988-.002-.194 0-.388-.003-.519.025-.286.061-.503.292-.505.537-.003 1.23-.003 2.461.003 3.691.001.07.029.159.077.238.131.214.343.323.629.323 1.597.003 3.195.003 4.792-.002.088 0 .193-.028.28-.075.261-.142.387-.474.301-.791-.082-.304-.316-.484-.625-.484h-.006c-.915.006-1.829.005-2.743.004z" transform="translate(14.968 19.555)"/><path d="M45.979 17.832c-.147 0-.293.001-.386.022-.216.047-.386.219-.386.393-.004 1.23-.003 2.46.003 3.69 0 .033.014.095.055.161.104.17.267.252.501.253 1.597.003 3.195.003 4.792-.002.065-.001.145-.023.209-.058.202-.109.297-.37.229-.621-.065-.238-.241-.374-.482-.374-.919.006-1.834.006-2.748.004l-1.434-.001v-2.398h3.371c.304-.001.483-.149.53-.441.026-.165-.022-.339-.13-.464-.097-.112-.228-.169-.391-.17-.867.013-1.751.011-2.607.01l-.038-.001c-.329-.001-.658-.001-.988-.001h-.052zm1.9 4.817c-.704 0-1.408-.001-2.113-.003-.336-.001-.597-.137-.755-.394-.062-.102-.098-.217-.099-.315-.006-1.231-.006-2.461-.003-3.692.001-.314.268-.608.621-.683.136-.029.313-.031.498-.028h.051c.329 0 .66.001.989.002h.037c.854.002 1.737.003 2.605-.01.252.002.464.097.617.273.165.191.24.455.199.707-.072.438-.372.69-.824.69h-3.074v1.803l1.136.001c.914.001 1.828.002 2.743-.004.38 0 .675.227.775.594.104.383-.054.787-.375.961-.108.059-.236.093-.35.093-.893.003-1.787.005-2.681.005zM45.056 14.872l-.001.283c-.001.354-.003.708.005 1.062.003.104.033.216.08.3.14.244.469.373.782.307.361-.077.573-.331.555-.664-.006-.101-.004-.204-.003-.312.001-.05.001-.101.001-.155v-.088h.994c1.006.001 2.012 0 3.017-.002.097 0 .181-.01.25-.032.29-.089.475-.425.422-.766-.053-.339-.304-.568-.626-.569h-.197-1.686c-.949 0-1.899.001-2.85.002-.092.001-.195.015-.298.044-.274.075-.444.3-.445.589" transform="translate(14.968 19.555)"/><path d="M48.649 14.386c-.949 0-1.899 0-2.849.002-.079 0-.17.013-.26.038-.209.058-.334.224-.335.446l-.001.283c-.001.363-.003.711.006 1.058.001.08.024.168.06.23.106.187.373.288.621.236.288-.061.453-.252.438-.509-.007-.105-.005-.211-.003-.323l.001-.39h1.143c1.006.001 2.012.001 3.017-.001.083 0 .152-.009.206-.026.218-.067.361-.336.319-.601-.042-.269-.23-.443-.48-.443zm-2.891 2.604c-.31 0-.606-.152-.747-.399-.06-.106-.097-.241-.1-.371-.008-.35-.006-.7-.005-1.05l.001-.298c.001-.352.219-.639.555-.731.115-.032.233-.049.338-.049.95-.001 1.9-.002 2.85-.002h1.883c.398.001.709.279.774.694.064.412-.167.821-.525.931-.083.026-.181.039-.293.039-1.006.002-2.012.003-3.018.001h-.845l-.001.096c-.001.105-.003.204.003.302.023.405-.241.726-.673.817-.065.013-.129.02-.194.02zM57.908 19.604c-.29.003-.581.002-.871.002l-.685-.002c-.301-.001-.601-.002-.902.006-.1.002-.209.031-.291.077-.249.14-.367.489-.275.813.089.313.3.473.627.473h.339c.442.001.883.001 1.323-.003h.004c.128 0 .203.049.252.164.104.249.213.495.322.742l.144.325c.079.18.195.29.345.327.138.034.287.047.432.038.19-.012.398-.148.516-.339.078-.127.15-.331.044-.577-.252-.594-.448-1.091-.617-1.567-.117-.33-.443-.48-.701-.48z" transform="translate(14.968 19.555)"/><path d="m57.1722892 20.821316c.1911492 0 .3225208.086191.3934198.2550973.1042632.2474514.2126969.4928175.3211307.7388786l.1438832.3253012c.0604727.1376275.1404078.2168675.2453661.2432809.1230306.0305838.2557924.0424003.387164.0340593.1424931-.0083411.3065338-.1195552.3989805-.2689991.0875811-.1411029.0987026-.2898517.0347545-.4406858-.2544023-.5963856-.4511122-1.096849-.6200186-1.5750695-.0924467-.2613531-.3558851-.3802132-.5616311-.3802132l-.0069509-.1487488.0013902.1487488c-.2641335.0027804-.528962.0027804-.7937906.0013902l-.7645968-.0013902c-.3100093-.0013902-.6040315-.0027803-.8980538.0048656-.0750695.0020853-.1598702.0243281-.221038.0583874-.1876737.1056534-.276645.3878591-.2043559.6422614.070899.2488415.2245135.3642261.4837813.3649212h.3809083c.4260889.0006951.8535681.0013902 1.2796571-.0020853m1.4110287 1.8968953c-.1278962 0-.2578777-.0152919-.3795181-.0458758-.1348471-.0340593-.3225208-.1327618-.4448563-.4114921l-.1438833-.3253012c-.1098239-.2474514-.2189527-.4942076-.3232159-.7437442-.023633-.0556071-.0424004-.0729843-.1146895-.0729843-.4295644.0034755-.8570436.0034755-1.2852178.0027804l-.3809083-.0006951c-.39481 0-.6617238-.2008805-.7694624-.5803985-.110519-.3878592.0382298-.8111678.3454587-.9835496.1035681-.0583874.2349398-.0938369.3600556-.0966173.2961075-.0069508.5929101-.0062558.8904078-.0048656l.7791937.0020853c.2627433.0006951.5268768.0013902.78962-.0020853h.0090362c.3072289 0 .7013438.1807229.8417516.5790084.1675162.4719647.3621409.9668674.6137627 1.5569972.1014829.2384152.0813253.4914272-.055607.7138554-.1438832.2335496-.3927247.39481-.6339203.410102-.031974.0020852-.0646432.0027803-.0980074.0027803" transform="translate(14.968 19.555)"/><path d="m51.9699722 22.1168211c.1146895.283596.4135774.4775255.7180259.4670992.339203-.0090361.5512049-.1612604.6672846-.4782206.576228-1.5674235 1.1614921-3.1313716 1.7460611-4.6953197l.3440686-.9209917c.015987-.0424003.0458758-.0729842.070899-.0980074.007646-.008341.015987-.015987.0229379-.0243281l.0674235-.0820204.0681187.0820204c.0069509.0083411.0145968.0159871.0222428.0243281.023633.0243281.0535218.0556071.0695088.0980074l.1640408.4531974c.1862836.5122799.379518 1.0433272.5567655 1.5688137.1014829.299583.3044486.442076.6422614.4483318h.0013901c.2439759.0145969.4789157-.1063484.6172382-.3044485.134152-.1939296.1536145-.4316497.054912-.6693698-.2272938-.5421687-.4392957-1.0996293-.6450417-1.6390176-.0910566-.2398054-.1828082-.4803059-.27595-.7194162l-.1063485-.2780352c-.0861909-.2259036-.1723818-.4518072-.2662187-.6749305-.1285913-.3051436-.3857738-.4761353-.7854495-.5206209-.0403151-.0041705-.0813253-.0062558-.1230306-.0062558-.3690917 0-.7847544.1779425-.9272474.6005561-.0882762.2620482-.1939296.5220111-.2954124.773633-.047266.1167748-.0938369.2328545-.1390176.3496293l-2.2715478 5.8213623c-.055607.1438832-.0549119.2829009.0020853.4240037" transform="translate(14.968 19.555)"/><path d="M55.601 14.296c-.285 0-.662.131-.786.5-.09.266-.195.528-.298.781-.047.117-.093.233-.139.349l-2.27 5.821c-.042.108-.042.209.001.314.09.225.339.381.575.374.279-.008.438-.122.533-.381.576-1.567 1.161-3.132 1.746-4.696l.344-.921c.027-.072.076-.121.104-.15l.197-.236.181.222c.042.043.09.092.117.165l.165.453c.188.518.381 1.047.558 1.572.08.238.231.341.503.348.194.013.382-.081.494-.242.106-.152.12-.334.04-.526-.226-.541-.438-1.095-.642-1.632-.096-.252-.188-.491-.279-.73l-.108-.279c-.086-.227-.171-.45-.264-.67-.108-.256-.319-.393-.665-.431-.034-.003-.07-.006-.106-.006m-2.937 8.437c-.357 0-.697-.227-.831-.56-.071-.176-.072-.356-.003-.534l2.271-5.822c.046-.117.094-.234.14-.351.101-.25.205-.508.292-.765.175-.519.685-.702 1.068-.702.047 0 .095.003.14.008.452.05.756.256.906.61.095.224.181.45.267.677l.107.28c.093.239.185.48.276.72.209.546.419 1.099.643 1.635.12.286.095.574-.07.811-.17.245-.458.385-.749.368-.393-.008-.655-.193-.776-.549-.177-.523-.368-1.05-.553-1.56l-.166-.459c-.003-.008-.011-.018-.019-.028-.011.01-.019.021-.022.029l-.345.921c-.584 1.564-1.168 3.127-1.745 4.695-.139.376-.401.564-.804.576-.009.001-.019.001-.028.001M34.358 18.36c-.016 1.656-1.33 2.953-2.989 2.954h-.002c-1.66-.038-2.946-1.351-2.928-2.989.009-.803.325-1.549.89-2.102.56-.547 1.304-.842 2.087-.833 1.666.02 2.958 1.325 2.942 2.97m-5.897-3.276c-.953.822-1.472 1.889-1.501 3.082.002.924.165 1.62.53 2.254.735 1.283 1.879 2.028 3.397 2.215.675.083 1.359.006 2.034-.229.756-.264 1.397-.703 1.906-1.305.487-.576.799-1.245.929-1.987.109-.626.088-1.241-.062-1.829-.277-1.084-.895-1.94-1.838-2.547-.993-.639-2.113-.852-3.332-.635-.777.14-1.472.468-2.062.979" transform="translate(14.968 19.555)"/><path d="M31.385 15.539c-.737 0-1.429.28-1.953.792-.537.525-.838 1.234-.846 1.996-.017 1.556 1.205 2.803 2.784 2.839 1.575-.001 2.823-1.234 2.838-2.806.015-1.563-1.212-2.801-2.795-2.821zm-.016 5.924c-1.748-.04-3.099-1.419-3.08-3.139.01-.842.341-1.627.936-2.206.586-.573 1.356-.89 2.192-.877 1.75.022 3.107 1.392 3.09 3.121-.017 1.738-1.395 3.1-3.137 3.101zm.058-7.291c-.286 0-.578.026-.878.079-.751.135-1.421.453-1.991.946-.921.794-1.421 1.822-1.449 2.973.002.893.159 1.566.509 2.176.711 1.24 1.817 1.96 3.286 2.142.652.08 1.314.005 1.966-.222.731-.255 1.35-.679 1.841-1.261.469-.556.771-1.2.895-1.916.106-.605.085-1.199-.059-1.767-.267-1.045-.863-1.873-1.774-2.459-.717-.461-1.504-.692-2.348-.692zm-.013 8.646c-.182 0-.364-.011-.546-.034-1.567-.193-2.747-.963-3.507-2.289-.378-.658-.548-1.376-.55-2.328.03-1.241.566-2.344 1.552-3.195.612-.528 1.33-.87 2.134-1.013 1.257-.224 2.414-.003 3.439.655.976.628 1.615 1.515 1.901 2.636.156.608.177 1.245.065 1.891-.134.768-.457 1.46-.961 2.057-.526.622-1.189 1.076-1.971 1.349-.515.18-1.036.27-1.556.27zM19.429 14.923c.015 1.99.01 4.013.007 5.971l-.002 1.015c-.001.245.089.414.282.532.263.161.537.17.815.026.228-.119.329-.309.328-.619-.004-1.506-.003-3.012-.003-4.518v-1.737l.113-.008c.019-.001.034-.003.049-.003h.48c.52 0 1.04-.001 1.56.002.124 0 .23.012.323.035.496.124.883.48 1.034.951.151.471.044.984-.287 1.371-.241.284-.551.446-.897.469-.214.015-.432.017-.643.019l-.227.003c-.157.003-.282.049-.382.139-.284.256-.317.671-.08 1.01.211.302.425.604.637.906.416.591.832 1.182 1.24 1.777.261.38.674.358.965.167.175-.115.298-.3.329-.494.028-.177-.019-.347-.138-.494-.145-.179-.277-.369-.406-.553-.057-.082-.115-.164-.173-.245l-.619-.863.05-.052.064.06-.058-.068.015-.019.035-.019.176-.061c.729-.268 1.272-.728 1.613-1.371.276-.519.368-1.086.274-1.69-.085-.54-.307-1.011-.661-1.399-.58-.636-1.313-.947-2.241-.948h-1.048-.3-.448c-.149-.001-.299-.001-.448-.001-.206 0-.411.001-.616.001-.202.001-.393.078-.524.211-.124.126-.19.298-.188.498" transform="translate(14.968 19.555)"/><path d="m20.757 14.363-.615.001c-.162.001-.314.061-.418.166-.097.097-.147.233-.146.392.015 2.005.01 4.022.007 5.972l-.001 1.015c-.001.193.062.315.21.405.218.133.437.14.669.02.177-.092.249-.232.247-.485-.003-1.506-.003-3.013-.003-4.519l.001-1.875.251-.018c.024-.001.042-.003.059-.003h.48.39c.391 0 .781 0 1.171.001.136.001.252.013.358.04.546.137.972.53 1.139 1.05.167.52.049 1.086-.315 1.514-.268.314-.613.494-1 .521-.216.015-.435.017-.647.019l-.231.003c-.12.002-.211.034-.284.1-.227.204-.25.539-.058.815.212.302.425.604.637.905.419.596.834 1.185 1.241 1.779.219.318.547.268.761.127.14-.092.239-.239.263-.393.022-.136-.014-.262-.106-.376-.146-.181-.279-.371-.408-.556-.061-.088-.118-.17-.176-.25l-.69-.962.234-.251.024.023.167-.06c.692-.253 1.207-.691 1.531-1.301.26-.489.346-1.027.257-1.597-.08-.511-.29-.956-.624-1.322-.55-.604-1.247-.898-2.13-.899l-1.048-.001-.299.001zm-.617 8.354c-.171 0-.341-.05-.503-.149-.238-.146-.352-.361-.352-.66l.001-1.014c.003-1.95.008-3.967-.007-5.97-.001-.24.079-.448.231-.603.16-.161.389-.254.629-.254l.617-.001.896.001.299-.001 1.048.001c.972.001 1.741.327 2.351.996.374.411.609.908.698 1.477.099.635.002 1.234-.288 1.782-.359.676-.929 1.161-1.694 1.442l-.131.045.538.751c.059.081.117.164.174.247.13.186.26.372.4.545.145.18.204.391.169.61-.037.235-.185.458-.394.596-.341.222-.853.253-1.17-.208-.407-.593-.821-1.18-1.234-1.768-.218-.309-.43-.61-.642-.913-.281-.402-.239-.898.102-1.206.127-.114.287-.173.479-.177l.228-.003c.211-.002.425-.004.635-.019.305-.02.579-.165.794-.417.297-.349.393-.808.259-1.23-.136-.422-.482-.74-.928-.852-.082-.02-.176-.03-.287-.031-.39-.001-.78-.001-1.17-.001h-.39l-.493.001v1.598c-.001 1.506-.001 3.012.003 4.518.001.366-.129.605-.408.75-.152.079-.306.118-.459.118zM10.999 17.487c0 .687-.001 1.375.003 2.062.002.318.035.619.097.896.161.715.56 1.282 1.187 1.686.407.261.866.423 1.404.494.733.097 1.392.026 2.014-.215 1.111-.433 1.809-1.438 1.823-2.625.006-.571.005-1.143.003-1.714-.001-.256-.001-.512-.001-.769l.006-.611c.001-.633.001-1.264-.003-1.896-.001-.131-.026-.247-.069-.329-.148-.278-.503-.403-.866-.304-.32.088-.483.309-.483.658v1.317c0 1.198 0 2.395-.004 3.593-.002.411-.158.785-.45 1.082-.344.348-.79.523-1.364.533-.557.01-1.045-.174-1.389-.518-.333-.333-.504-.794-.494-1.334.022-1.23.015-2.483.008-3.694l-.006-1.015c-.001-.116-.031-.242-.083-.336-.108-.197-.304-.305-.582-.32-.016-.001-.031-.001-.047-.001-.195 0-.381.07-.514.197-.131.124-.198.291-.196.48.01.894.008 1.804.008 2.683" transform="translate(14.968 19.555)"/><path d="M11.148 17.487v.059c-.001.667-.001 1.335.003 2.003.002.307.033.598.092.864.152.676.529 1.212 1.122 1.593.388.249.827.403 1.343.471.708.093 1.343.026 1.941-.207 1.053-.409 1.715-1.363 1.728-2.488.006-.56.005-1.121.003-1.681l-.002-.8.006-.658c.001-.617.001-1.232-.004-1.848-.001-.106-.019-.2-.051-.26-.115-.216-.401-.311-.696-.23-.255.07-.373.233-.374.514v1.415c.001 1.166.001 2.331-.004 3.496-.001.45-.172.861-.493 1.186-.373.378-.853.566-1.467.578-.587.012-1.123-.189-1.497-.562-.362-.362-.548-.861-.537-1.442.022-1.226.015-2.475.008-3.683l-.005-1.022c-.001-.092-.025-.193-.065-.265-.083-.151-.234-.231-.46-.244l-.039-.001c-.156 0-.307.057-.411.157-.099.095-.152.223-.15.37.01.895.009 1.805.008 2.685m3.157 5.329c-.206 0-.418-.015-.636-.043-.56-.074-1.04-.243-1.465-.516-.662-.425-1.082-1.024-1.251-1.778-.065-.287-.098-.599-.1-.927-.004-.669-.003-1.337-.003-2.005v-.058c.001-.879.001-1.788-.008-2.682-.003-.232.081-.436.242-.589.174-.166.416-.25.671-.237.415.024.612.229.705.398.063.116.1.265.101.407l.005 1.015c.007 1.216.014 2.468-.008 3.697-.008.498.147.922.451 1.225.315.315.763.484 1.281.474.532-.009.945-.169 1.26-.489.265-.268.406-.607.407-.978.005-1.165.005-2.33.005-3.495v-1.415c0-.418.205-.695.592-.801.43-.117.856.038 1.037.377.055.104.085.241.086.398.005.617.004 1.233.003 1.85l-.004 1.427c.001.592.003 1.154-.003 1.716-.015 1.248-.749 2.306-1.918 2.761-.46.179-.94.268-1.451.268M3.312 14.784c-.006.588-.005 1.038.003 1.462.001.074.028.165.074.242.148.254.496.385.81.307.366-.092.53-.302.53-.678v-.534l4.004-.001c.372 0 .584-.166.667-.523.05-.212-.001-.439-.136-.608-.126-.156-.307-.243-.509-.243h-.008c-1.021.011-2.06.01-3.063.008-.334-.001-.668-.001-1.002-.001-.199 0-.399 0-.598.001-.104 0-.215.015-.323.043-.254.065-.446.291-.448.524" transform="translate(14.968 19.555)"/><path d="m4.682 14.364-.598.001c-.091 0-.19.014-.286.038-.188.049-.336.217-.337.382-.006.587-.005 1.036.003 1.458.001.048.022.115.054.17.114.195.397.3.645.237.301-.076.418-.226.418-.533v-.683h4.153c.303 0 .455-.119.523-.409.039-.168-.001-.347-.108-.48-.097-.121-.237-.187-.394-.187-1.027.01-2.066.01-3.07.008zm-.667 2.601c-.309 0-.61-.154-.755-.403-.058-.099-.092-.214-.095-.314-.007-.424-.008-.877-.002-1.465.003-.298.243-.585.56-.667.12-.031.245-.048.361-.048l.598-.001 1.002.001c1.004.002 2.041.003 3.06-.008.259 0 .481.106.635.298.163.204.225.478.165.734-.099.424-.372.639-.812.639h-3.856v.386c0 .443-.21.712-.642.822-.073.018-.147.027-.22.027zM4.027 22.475c1.429.002 2.858.001 4.287.001h.495c.044 0 .09-.005.131-.015.317-.074.521-.4.475-.758-.046-.348-.294-.58-.618-.58h-.003c-.936.004-1.872.003-2.808.003l-1.25-.001v-2.101h3.229c.366-.001.597-.191.667-.551.04-.204-.02-.431-.156-.593-.126-.15-.3-.229-.502-.228-.883.013-1.782.011-2.65.009-.329-.001-.658-.002-.988-.002-.196 0-.393-.003-.525.026-.284.063-.498.296-.499.543-.003 1.226-.003 2.452.003 3.679 0 .075.031.168.08.248.131.211.343.318.631.319" transform="translate(14.968 19.555)"/><path d="m4.21492122 17.8084569c-.14249305 0-.28151065.0020853-.37117701.0222428-.21408712.047266-.38229843.2224282-.38299351.3975904-.00278036 1.2261353-.00278036 2.4522706.00278035 3.6784059.00069509.0465709.02363299.1139945.05838739.1702966.10356812.1668211.26899908.2481464.50463392.2488415 1.42910102.0020853 2.85750695.0013902 4.28660797.0006951h.4942076c.03475441 0 .06811863-.0034754.09731233-.0104263.24258573-.0569972.39759036-.3120946.36075069-.5943003-.03614457-.2731696-.22034291-.4504171-.46987951-.4504171-.93836886.0048657-1.87395737.0041706-2.81093606.0027804l-1.39921223-.0006951v-2.3973587l3.37882299-.000695c.29471733 0 .4650139-.1404078.52131603-.4295645.03127896-.1612604-.01598703-.3412882-.12372567-.4698795-.09661724-.1153846-.22451344-.1835032-.38716404-.1751622-.89596849.0139018-1.82877665.0111214-2.65176089.0090362l-1.04888786-.0013902zm2.18188137 4.8162651c-.7903151 0-1.57993512 0-2.37025023-.0013902-.33781279-.0006951-.59986098-.1355422-.75764597-.3892493-.06464318-.1049583-.10217794-.2238184-.10217794-.3266914-.00695088-1.2261353-.00695088-2.4529657-.00347544-3.6797961.00069509-.3141798.26552364-.6095922.61584801-.6874421.1334569-.0298888.30931418-.0284986.49490269-.0291937l1.05027803.0013902c.82089898.0020853 1.75231696.0048656 2.64689528-.0090361.24467099.0076459.4650139.0987025.61862836.2815106.16404077.1953198.23563484.4705746.18767377.7173309-.08410566.4323447-.37256719.6707599-.81325301.6707599l-3.08132531.0006951v1.8030584l1.10240964.0006951c.93558851.0006951 1.87117702.0013902 2.80607044-.0034754.40593142 0 .71316033.2849861.76876738.7096849.05699722.4337349-.19531975.8306302-.5873494.9216867-.05143652.0118165-.10843374.0187674-.16473587.0187674h-.49490269c-.63878591.0006951-1.27757182.0006951-1.91635774.0006951z" transform="translate(14.968 19.555)"/><path d="m2.37627433 4.928962 1.49652456 1.389481c.16960148.15778499.24536608.39202966.20018535.61932345l-.39689527 1.99073216 1.77873031-.98980538c.20157553-.11190917.44694161-.11190917.64851714.00069509l1.77873031.98911029-.39689527-1.99073216c-.04587582-.22729379.03058387-.46153846.20018535-.61932345l1.49582947-1.389481-2.01992585-.23354958c-.23146432-.02710843-.43164968-.17238184-.52965709-.38438369l-.85217795-1.8544949-.85287303 1.8544949c-.09800741.21200185-.29819277.35727526-.52965709.38438369zm6.43303985 5.936747c-.110519 0-.22173309-.0284986-.32321594-.0841057l-2.70667285-1.50695084-2.70736793 1.50695084c-.2265987.125811-.5060241.1091289-.7152456-.0437905s-.31139944-.4128823-.25996293-.6679796l.60403151-3.03127898-2.27780352-2.11515292c-.19045412-.17655237-.26065801-.4476367-.17933271-.69439296.08063021-.24675625.29749768-.42400371.55537535-.45389249l3.07715477-.35588508 1.29842447-2.82344764c.10912882-.23563484.34406858-.38716404.60472659-.38716404.25996293 0 .49490269.1515292.60403151.38716404l1.29842447 2.82344764 3.07715473.35588508c.2578777.02988878.4747452.20713624.5553754.45389249.0813253.24675626.0104263.51784059-.1793327.69439296l-2.27780355 2.11515292.60403152 3.03127898c.05143651.2550973-.05074143.5150602-.26065802.6679796-.1160797.0848007-.25301205.1278962-.39133457.1278962z" transform="translate(76.691 19.555)"/><path d="m5.77907785 7.7055607c.13623726 0 .2731696.03405932.39689527.10356812l1.49721965.83341057-.33433735-1.67585728c-.05560704-.28012048.03614458-.56302131.24536608-.75764597l1.25949954-1.16913809-1.69949027-.197405c-.28081557-.03197405-.528962-.21200185-.64782206-.46848934l-.71733086-1.56116775-.71733086 1.56047266c-.11816497.25718258-.36700649.43721038-.64782206.46918443l-1.69949027.197405 1.25949954 1.16913809c.2092215.19462466.30097312.47752549.24536608.75764597l-.33433735 1.67585728 1.49791473-.83410566c.12372568-.06881371.26065802-.10287303.39620019-.10287303zm-2.31116775 1.50973124.4594532-2.30699722c.03544949-.17794254-.02293791-.35797035-.15569972-.48100093l-1.7328545-1.60912882 2.34105654-.27038925c.17863762-.02085264.33642261-.13554217.41149212-.29888786l.98772011-2.14782206.98772011 2.14782206c.07506951.16334569.2328545.27803522.41149212.29888786l2.34105654.27038925-1.7328545 1.60912882c-.13276181.12303058-.19114921.30305839-.15569972.48100093l.4594532 2.30699722-2.05954588-1.14620019c-.1570899-.08827618-.34615384-.08827618-.50324374 0zm2.31116775-.110519 2.778962 1.54657086c.17307692.0959222.3955051.0820204.55537535-.0340593.16195551-.1174699.24189064-.3211307.20227062-.5178406l-.62071362-3.11329932 2.3389713-2.17145505c.1466635-.13693235.2015755-.3489342.1390176-.53938833-.0625579-.19045412-.2314643-.32877664-.4309546-.35171455l-3.16056535-.3663114-1.33317887-2.89921223c-.08341057-.18280815-.26830399-.30097312-.46918443-.30097312s-.38507878.11816497-.46918443.30097312l-1.33317887 2.89921223-3.16056534.3663114c-.19949027.02293791-.36839666.16126043-.43095458.35171455-.06325302.19114922-.00764597.40245598.1390176.53938833l2.33897127 2.17145505-.62071362 3.11329932c-.03962002.1967099.04031511.4003707.20227062.5178406.16195551.118165.37951807.1313717.55537535.0340593zm3.02988879 1.90940686c-.13762744 0-.27455978-.0354495-.3955051-.102873l-2.63438369-1.46594072-2.63438369 1.46594072c-.27664504.1536144-.62071362.1327618-.87511585-.0528267-.2557924-.1862836-.38090825-.5067192-.31904541-.8174236l.58804449-2.94995363-2.21733086-2.05885078c-.23146432-.2154773-.31765524-.54911956-.21895274-.8493976.0987025-.30097312.36492122-.51923076.6804912-.55537534l2.99304912-.34615385 1.26436515-2.74768304c.13206673-.28776645.42191844-.47405004.73887859-.47405004s.60681186.18628359.73957368.47405004l1.26367006 2.74768304 2.99304911.34615385c.3148749.03614458.5817887.25440222.6804912.55537534.0987025.30027804.0125116.6339203-.2189527.8493976l-2.21733089 2.05885078.58804449 2.94995363c.06186283.3107044-.06325301.63114-.31904541.8174236-.1397127.1014828-.30583874.1556997-.47961075.1556997z" transform="translate(76.691 19.555)"/></g></g></svg>