<svg xmlns="http://www.w3.org/2000/svg" id="Livello_1" data-name="Livello 1" viewBox="0 0 429.81 55"><defs><style>.cls-1{fill:#2e3b4b}.cls-3{fill:#2b6e97}</style></defs><title>LOGO_NEXUS01</title><path d="M-718.49-771.57v41.72l-34.93-41.72h-7.36v55h8.41v-41.56l34.93 41.56h7.36v-55h-8.41ZM-618.41-740.76l-1.79 2.34-3.34 4.33 13.38 17.5h9.7v-.65Zm8.25-30.81-13.48 17.49 5.12 6.69 18.06-23.46v-.73h-9.7Zm-16 20.78-.8 1-1.8 2.34-2.47 3.24 2.59 3.39 2.61 3.41.8-1.05L-621-744ZM-553.06-771.57v31.11c0 9.31-5 16.15-15.76 16.15-10.58 0-15.51-6.37-15.51-16.07v-31.2h-8.28v31.75c0 13.53 8.12 23.23 23.79 23.23 15.83 0 24-10.74 24-23.23v-31.75h-8.28ZM-510.66-747.1l-10.62-2.83c-4.64-1.18-7.25-3.07-7.25-6.69 0-4 3.78-7.4 12.35-7.4a35 35 0 0 1 16.61 4.4l2.44-7.7c-4-2.2-11.33-4.25-18.73-4.25-14.48 0-21.09 7.24-21.09 15.58 0 7 4.33 11.64 12.12 13.61l10.78 2.75c6 1.5 9.36 3.54 9.36 7.32 0 4.95-5 8.18-12.75 8.18A33.27 33.27 0 0 1-534.1-729l-2 7.79a40.5 40.5 0 0 0 18.49 4.64c12.67 0 21.41-6.45 21.41-16.36C-496.18-740.49-501.22-744.5-510.66-747.1Z" class="cls-1" transform="translate(760.77 771.57)"/><path d="M-626.18-750.78l-15.89-20.78h-4.65v0.65l17.94,23.52,2.6,3.4-2.48,3.22-18.06,23.46v0.74h4.65l16-20.78,0.8-1.05L-621-744Z" style="fill:#fff" transform="translate(760.77 771.57)"/><path d="M-626.18-750.78l-15.89-20.78h-9.7v0.65L-631.23-744l-20.54,26.68v0.74h9.7l16-20.78,0.8-1.05L-621-744Z" class="cls-3" transform="translate(760.77 771.57)"/><path d="M58.54 0H101.15V7.06H58.54zM58.54 23.96H101.15V31.02H58.54zM58.54 47.92H101.15V54.98H58.54z" class="cls-3"/><path d="M-477.27-771.57v12.28h5.81v2.35H-480v-14.63h2.71Z" class="cls-3" transform="translate(760.77 771.57)"/><path d="M-465-771.57v14.63h-1.89v-14.63H-465ZM-451.69-771.57V-770h-7.67v4.91h7.32v1.53h-7.32v6.65h-1.89v-14.63h9.57ZM-439.88-771.57V-770h-7.67v4.91h7.32v1.53h-7.32v5.12h7.83v1.53h-9.72v-14.63h9.57Z" class="cls-1" transform="translate(760.77 771.57)"/><path d="M-468.31-737.42a12,12,0,0,1-4.3.72q-7.87,0-7.88-7.62,0-7.21,7.88-7.21a12,12,0,0,1,4.3.72v2.46a10.26,10.26,0,0,0-4.09-.82q-5.26,0-5.27,4.86,0,5.26,5.27,5.27a10.26,10.26,0,0,0,4.09-.82v2.46Z" class="cls-3" transform="translate(760.77 771.57)"/><path d="M-467-751.44h2.1l4.22 7.64 4.28-7.64h2.2l-5.59 9.52v5.12h-1.89v-5.12ZM-441.2-737.32a13.19 13.19 0 0 1-4.09.61q-7.67 0-7.67-7.62 0-7.21 7.67-7.21a13.19 13.19 0 0 1 4.09.61v1.64a10.9 10.9 0 0 0-3.89-.72q-6 0-6 5.68 0 6.09 6 6.09a10.9 10.9 0 0 0 3.89-.72v1.64ZM-436.18-751.44v13.1h7.65v1.53h-9.55v-14.63h1.89ZM-416.71-751.44v1.53h-7.67V-745h7.32v1.53h-7.32v5.12h7.83v1.53h-9.72v-14.63h9.57Z" class="cls-1" transform="translate(760.77 771.57)"/><path d="M-480-716.68v-14.63h2.81l5,11.1,4.86-11.1h2.71v14.63h-2.51v-10.19l-4,10.19h-2.31l-4.05-10.19v10.19H-480Z" class="cls-3" transform="translate(760.77 771.57)"/><path d="M-460.87-716.68h-2l6.21-14.63h2.1l6.24 14.63h-2.1l-1.89-4.6h-4.84l.52-1.53h3.68l-2.73-6.63ZM-446.29-716.68v-14.63h1.89l9 11.79v-11.79h1.79v14.63h-1.89l-9-11.89v11.89h-1.79ZM-429.7-716.68h-2l6.21-14.63h2.1l6.24 14.63h-2.1l-1.89-4.6h-4.84l.52-1.53h3.68l-2.73-6.63ZM-404.07-717.26a10.62 10.62 0 0 1-3.82.68q-8 0-8-7.62 0-7.21 7.67-7.21a13.19 13.19 0 0 1 4.09.61v1.64a10.9 10.9 0 0 0-3.89-.72q-6 0-6 5.68 0 6.09 5.89 6.09a10 10 0 0 0 2.09-.25v-5h1.89v6.08ZM-391.38-731.31v1.53h-7.67v4.91h7.32v1.53h-7.32v5.12h7.83v1.53h-9.72v-14.63h9.57ZM-388.36-716.68v-14.63h2.4l5.37 12.21 5.27-12.21h2.3v14.63h-1.69v-12l-5.2 12h-1.49l-5.28-12v12h-1.69ZM-360-731.31v1.53h-7.67v4.91h7.32v1.53h-7.32v5.12h7.83v1.53h-9.72v-14.63H-360ZM-356.95-716.68v-14.63h1.89l9 11.79v-11.79h1.79v14.63h-1.89l-9-11.89v11.89h-1.79ZM-331-731.31v1.53h-4.6v13.1h-1.89v-13.1h-4.6v-1.53H-331Z" class="cls-1" transform="translate(760.77 771.57)"/></svg>