<svg xmlns="http://www.w3.org/2000/svg" xml:space="preserve" height="64" fill="none" viewBox="0 0 129 64"><title>Reply Logo</title><g fill-rule="evenodd" clip-path="url(#clip0_10408_551)" clip-rule="evenodd"><path fill="#02d34a" d="M27.3656 18.3166C27.3656 16.4202 28.9009 14.8837 30.8013 14.8837C32.6929 14.8837 34.2326 16.4202 34.2326 18.3166C34.2326 20.2087 32.6929 21.7408 30.8013 21.7408C28.9009 21.7408 27.3656 20.2087 27.3656 18.3166ZM27.5612 23.6679L23.2677 29.309L22.1812 30.7708L27.3764 37.7596C27.6624 38.1415 27.8164 38.6068 27.812 39.0853L27.7768 48.3261C27.7768 48.7651 27.4204 49.1163 26.9849 49.1163H26.3779C25.982 49.1163 25.6432 48.8221 25.5904 48.4314L24.4599 40.1038C24.4203 39.8053 24.2663 39.5375 24.0288 39.3531L18.0769 34.6339L15.2571 36.3504C14.8831 36.5743 14.4564 36.6972 14.0209 36.706L2.24466 36.8991C1.90154 36.9035 1.56721 36.7631 1.33406 36.5128L0.141917 35.2354C-0.14842 34.9281 0.0319411 34.4145 0.45425 34.3574L12.6484 32.6278L21.9172 22.689L14.4256 21.2798C14.2101 21.2403 14.0077 21.1481 13.8406 21.012L12.6308 20.0375C12.3669 19.8268 12.5165 19.4053 12.8552 19.4053H17.1706L25.0362 19.3527C25.3397 19.3483 25.6212 19.5063 25.784 19.7609L27.6052 22.6802C27.7988 22.9875 27.7812 23.3826 27.5612 23.6679Z"/><path fill="#151f27" d="M52.459 27.296C52.459 25.564 51.109 24.497 49.349 24.497H44.645V30.158H49.349C51.109 30.158 52.459 29.087 52.459 27.296ZM52.018 41.544 47.906 34.088H44.645V41.544H40.186V20.563H49.978C54.339 20.563 57.038 23.425 57.038 27.328 57.038 31.007 54.686 33.021 52.428 33.552L57.163 41.544H52.018ZM60.363 41.544V20.563H75.171V24.497H64.818V28.899H74.952V32.829H64.818V37.611H75.171V41.544H60.363ZM90.927 27.328C90.927 25.564 89.582 24.497 87.822 24.497H83.114V30.127H87.822C89.582 30.127 90.927 29.056 90.927 27.328ZM78.659 41.544V20.563H88.45C92.999 20.563 95.48 23.644 95.48 27.328 95.48 30.976 92.967 34.056 88.45 34.056H83.114V41.544H78.659ZM98.082 41.544V20.563H102.572V37.611H111.419V41.544H98.082ZM116.284 41.544V32.958L108.253 20.563H113.335L118.512 28.962 123.688 20.563H128.744L120.739 32.958V41.544H116.284Z"/></g><defs><clipPath id="clip0_10408_551"><path fill="#fff" d="M0 0H128.744V64H0z"/></clipPath></defs></svg>