<svg xmlns="http://www.w3.org/2000/svg" xml:space="preserve" viewBox="30 40 140 33"><path d="M106.6 41c-.8 0-1.4.6-1.4 1.4v17c0 .8-.3.9-.8.2L92.7 42.1c-.4-.6-1.4-1.1-2.1-1.1h-3.1c-.8 0-1.4.6-1.4 1.4V71c0 .8.6 1.4 1.4 1.4h4.2c.8 0 1.4-.6 1.4-1.4V54.5c0-.8.3-.9.8-.2l11.6 17c.4.6 1.4 1.1 2.1 1.1h3.3c.8 0 1.4-.6 1.4-1.4V42.4c0-.8-.6-1.4-1.4-1.4h-4.3zm-47.4 1.4c0-.8.6-1.4 1.4-1.4h19.7c.8 0 1.1.5.7 1.2l-2.1 3.7c-.4.6-1.3 1.2-2 1.2H60.5c-.8 0-1.4-.6-1.4-1.4l.1-3.3zm0 25.3c0-.8.6-1.4 1.4-1.4h19.7c.8 0 1.1.5.7 1.2l-2.1 3.7c-.4.6-1.3 1.2-2 1.2H60.5c-.8 0-1.4-.6-1.4-1.4l.1-3.3zm0-13c0-.8.6-1.4 1.4-1.4h16.3c.8 0 1.1.5.7 1.2l-2.1 3.7c-.4.6-1.3 1.2-2 1.2h-13c-.8 0-1.4-.6-1.4-1.4l.1-3.3zm60.1-12.3c0-.8.6-1.4 1.4-1.4h19.7c.8 0 1.1.5.7 1.2l-2.1 3.7c-.4.6-1.3 1.2-2 1.2h-16.2c-.8 0-1.4-.6-1.4-1.4l-.1-3.3zm0 25.3c0-.8.6-1.4 1.4-1.4h19.7c.8 0 1.1.5.7 1.2l-2.1 3.7c-.4.6-1.3 1.2-2 1.2h-16.2c-.8 0-1.4-.6-1.4-1.4l-.1-3.3zm0-13c0-.8.6-1.4 1.4-1.4H137c.8 0 1.1.5.7 1.2l-2.1 3.7c-.4.6-1.3 1.2-2 1.2h-12.8c-.8 0-1.4-.6-1.4-1.4l-.1-3.3zm36.3 17.7h7.3c.8 0 1.7-.5 2-1.2l2.1-3.7c.4-.6.1-1.2-.7-1.2h-8.6c-4.1-.2-5.5-1.9-5.5-5.8V52c0-2.9 2.2-4.9 5-4.9h5.6c.8 0 1.7-.5 2-1.2l2.1-3.7c.4-.6.1-1.2-.7-1.2h-10.5c-6.5 0-10.6 5-10.6 11.3v8.9c.2 5.8 3.2 11.2 10.5 11.2M44 72.4c5.8 0 9.5-3.1 9.5-7.1v-4.2c0-2.8-1.5-5.9-5.9-6.8-2.1-.4-7.6-1.5-7.6-1.5-1.2-.3-1.9-1.2-1.9-2.1V50c0-1.4 1-2.9 2.8-2.9h7.7c.8 0 1.7-.5 2-1.2l2.1-3.7c.4-.6.1-1.2-.7-1.2H40.8c-6.1 0-9.7 3.8-9.7 7.9v2.3c0 4.3 2.5 6.7 5.7 7.4.6.1 6.9 1.5 7.7 1.7 1.8.4 2 1.6 2 2.4v1.2c0 2.5-3 2.4-3.8 2.4H32.5c-.8 0-1.4.6-1.4 1.4V71c0 .8.6 1.4 1.4 1.4H44c5.8 0 9.5-3.1 9.5-7.1" style="fill:#111987"/></svg>